<?xml version="1.0" encoding="utf-8"?>
<!-- Generator: Adobe Illustrator 16.2.1, SVG Export Plug-In . SVG Version: 6.00 Build 0)  -->
<!DOCTYPE svg PUBLIC "-//W3C//DTD SVG 1.1//EN" "http://www.w3.org/Graphics/SVG/1.1/DTD/svg11.dtd">
<svg version="1.1" id="Layer_1" xmlns="http://www.w3.org/2000/svg" xmlns:xlink="http://www.w3.org/1999/xlink" x="0px" y="0px"
	 width="320px" height="320px" viewBox="0 0 320 320" enable-background="new 0 0 320 320" xml:space="preserve">
<rect x="-154.639" y="87.348" fill="#ABABAB" width="55.488" height="55.488"/>
<rect x="-154.639" y="16.162" width="55.488" height="55.488"/>
<g>
	<path d="M195.495,140.552c1.779,0,3.562,0,5.345,0c9.179,1.001,16.062,4.297,16.997,13.536c-3.409,0-6.819,0-10.232,0
		c0.027-7.536-9.637-9.506-15.262-6.609c-7.721,3.976-7.954,22.186,0.785,25.494c4.723,1.785,11.488,0.76,13.692-3.304
		c0.726-1.343,0.648-3.006,1.261-4.724c3.362,0.104,7.131-0.207,10.233,0.155c-0.495,7.008-4.092,10.437-9.131,12.438
		c-8.84,3.499-21.712,2.105-27.54-3.465c-5.94-5.675-7.297-18.438-1.89-25.965C182.986,143.605,188.258,141.339,195.495,140.552z"/>
	<path d="M40.165,141.342c3.252,0,6.501,0,9.757,0c0,4.983,0,9.967,0,14.951c6.085,0.366,12.85,0.053,19.201,0.157
		c0.366-4.721,0.048-10.124,0.155-15.106c3.357,0,6.716,0,10.07,0c0,12.327,0,24.655,0,36.983c-3.043,0.364-6.761,0.051-10.07,0.158
		c0-5.454,0-10.912,0-16.368c-6.453,0-12.902,0-19.355,0c0,5.456,0,10.914,0,16.368c-3.304,0-6.611,0-9.916,0
		c0-12.225,0-24.447,0-36.67C39.993,141.588,39.981,141.366,40.165,141.342z"/>
	<path d="M87.217,141.342c3.256,0,6.504,0,9.756,0c0,12.38,0,24.761,0,37.141c-3.305,0-6.606,0-9.911,0c0-12.224,0-24.446,0-36.67
		C87.049,141.588,87.032,141.366,87.217,141.342z"/>
	<path d="M100.438,141.342c13.167,0,26.335,0,39.504,0c0,2.1,0,4.197,0,6.295c-4.879,0-9.757,0-14.636,0
		c-0.366,9.343-0.058,20.717-0.159,30.848c-3.304,0-6.606,0-9.911,0c0-10.232,0-20.458,0-30.691
		c-4.671-0.368-10.023-0.05-14.954-0.157c0-1.939,0-3.882,0-5.822C100.27,141.588,100.253,141.366,100.438,141.342z"/>
	<path d="M148.911,141.342c3.933,0,7.87,0,11.8,0c5.667,12.484,11.639,24.657,17.309,37.141c-3.671,0-7.342,0-11.012,0
		c-1.09-2.795-2.145-5.622-3.308-8.341c-5.875,0-11.748,0-17.627,0c-1.484,2.502-2.386,5.59-3.616,8.341c-3.618,0-7.242,0-10.86,0
		C137.295,166.026,143.036,153.615,148.911,141.342z M147.963,164.789c4.51,0,9.022,0,13.533,0
		c-2.027-5.891-4.447-11.395-6.767-16.998C152.438,153.417,150.192,159.092,147.963,164.789z"/>
	<path d="M223.192,141.342c3.249,0,6.501,0,9.759,0c0,4.983,0,9.967,0,14.951c6.086,0.366,12.85,0.053,19.2,0.157
		c0.365-4.721,0.048-10.124,0.153-15.106c3.357,0,6.713,0,10.068,0c0,12.38,0,24.759,0,37.142c-3.355,0-6.711,0-10.068,0
		c0-5.407,0-10.81,0-16.213c-6.089-0.365-12.854-0.05-19.201-0.153c-0.365,5.143-0.055,10.962-0.152,16.37c-3.311,0-6.612,0-9.917,0
		c0-12.226,0-24.449,0-36.672C223.021,141.588,223.008,141.366,223.192,141.342z"/>
	<path d="M270.242,141.342c3.255,0,6.507,0,9.759,0c0,12.38,0,24.761,0,37.141c-3.304,0-6.607,0-9.911,0c0-12.224,0-24.446,0-36.67
		C270.073,141.588,270.059,141.366,270.242,141.342z"/>
</g>
</svg>
