<?xml version="1.0" encoding="utf-8"?>
<!-- Generator: Adobe Illustrator 16.2.1, SVG Export Plug-In . SVG Version: 6.00 Build 0)  -->
<!DOCTYPE svg PUBLIC "-//W3C//DTD SVG 1.1//EN" "http://www.w3.org/Graphics/SVG/1.1/DTD/svg11.dtd">
<svg version="1.1" id="Layer_1" xmlns="http://www.w3.org/2000/svg" xmlns:xlink="http://www.w3.org/1999/xlink" x="0px" y="0px"
	 width="320px" height="320px" viewBox="0 0 320 320" enable-background="new 0 0 320 320" xml:space="preserve">
<rect x="-154.639" y="87.348" fill="#ABABAB" width="55.488" height="55.488"/>
<rect x="-154.639" y="16.162" width="55.488" height="55.488"/>
<g>
	<g>
		<circle cx="234.804" cy="153.897" r="33.195"/>
		<path fill="#FFFFFF" d="M234.892,139.821l4.152-0.026c0,0,2.556-0.203,2.561,2.842c5.495-0.033,10.088-0.959,11.036-6.55
			c0,0,4.31,6.964,2.369,12.354c-0.909,2.488-3.994,2.173-5.972,2.253c-1.777,0.058-7.584,0.175-7.584,0.175l0.025,4.289
			c0,0,4.817-0.197,9.408-0.18c6.778,0.057,6.506,1.639,6.694,5.31c0.26,4.747-0.766,8.838-5.35,9.512
			c-8.755,1.387-10.455-1.72-9.021-4.783c0,0-0.03,0.768,0.913,1.473c0.595,0.424,1.566,0.549,2.612,0.452
			c1.543-0.109,2.271-1.069,2.27-2.393c-0.005-1.312-1.328-2.435-4.184-2.372c-2.568,0.106-6.188,2.742-2.962,7.955
			c-2.395,1.244-3.832,1.582-6.898,1.574c-3.081-0.005-4.778-0.324-7.19-1.551c3.201-5.232-0.413-7.837-2.981-7.936
			c-2.854-0.066-4.184,1.075-4.169,2.389c-0.022,1.317,0.741,2.271,2.281,2.37c1.015,0.093,1.993-0.035,2.595-0.46
			c0.907-0.701,0.903-1.483,0.903-1.483c1.45,3.086-0.242,6.183-8.992,4.833c-4.601-0.682-5.646-4.755-5.38-9.487
			c0.211-3.679-0.114-5.267,6.671-5.342c4.581-0.047,9.387,0.137,9.387,0.137l0.023-4.295c0,0-5.817-0.091-7.585-0.133
			c-1.969-0.071-5.07,0.248-5.958-2.231c-1.99-5.39,2.333-12.355,2.333-12.355c0.945,5.571,5.513,6.482,11.035,6.491
			c-0.018-3.044,2.568-2.847,2.568-2.847L234.892,139.821z"/>
	</g>
	<path d="M90.902,177.81c0.062,0.015,0.129-0.012,0.151-0.063C90.978,177.734,90.916,177.734,90.902,177.81z M58.387,138.365
		c0.884,0.178,1.765,0.088,2.649,0.354c0.266,0,0.619-0.177,0.884-0.089c0.089,0.089,0.265,0,0.265,0.175
		c0.443-0.175,0.973,0.179,1.412-0.088c0.355-0.176,0.796-0.088,1.15-0.355c0.089-0.088,0.176,0.178,0.354,0.089
		c0.706-0.354,1.412-0.708,2.207-0.884c0.53-0.089,0.973-0.619,1.502-0.795c0.353-0.088,0.708,0.088,0.971,0
		c0.176-0.088,0.266-0.266,0.442-0.355c1.057-0.265,2.031-0.352,3.092-0.352c0.174,0,0.352-0.178,0.438-0.354
		c0.091-0.352,0.047-0.835-0.264-1.148c-0.354-0.353-0.53-0.705-0.53-1.148c-0.442,0.09-0.973-0.263-1.325-0.353
		c-0.442-0.088-0.708-0.265-1.148-0.529c-0.265-0.267-0.794-0.177-1.238-0.267c-0.088-0.087-0.174-0.176-0.174-0.352
		c-0.619-0.089-0.884-0.795-1.413-0.972c-0.175-0.089-0.355,0.177-0.53,0.088c-0.09-0.088-0.266-0.176-0.266-0.353
		c-0.176,0-0.44,0.088-0.706-0.089c-0.354-0.264-1.059,0.089-1.412-0.264c-0.619-0.53-1.414-0.44-2.122-0.706
		c-0.795-0.265-1.767-0.354-2.386-0.971c-0.088,0.174-0.263,0.264-0.352,0.264c-0.531-0.09-1.148,0.087-1.589,0.353
		c-0.178,0.089-0.534,0-0.797,0.089c-0.087,0.089-0.174,0.265-0.264,0.265c-0.619,0.088-1.148,0.266-1.588,0.795
		c0,0.087,0,0.176,0.088,0.264c0,0.265-0.532,0.265-0.442,0.441c0.177,0.353,0.265,0.794,0,1.058
		c-0.264,0.442-0.796,0.619-1.325,0.796c-0.179,0-0.266,0.354-0.53,0.441c-0.62,0-1.324,0.177-1.324,0.708
		c0,0.175-0.178,0.353-0.089,0.53c0.265,0.264,0.528,0.528,0.795,0.793c0.176,0.088,0.441,0,0.531,0.179
		c0,0.263-0.09,0.527-0.266,0.792c-0.088,0.355,0.176,0.619,0.354,0.886c0.088,0.174,0.264,0.437,0.53,0.53
		c0.265,0.088,0.618,0,0.884,0.263c0.176,0.089,0.353-0.088,0.529-0.176c0.443,0,0.971,0.176,1.413,0.265
		C57.328,138.365,57.856,138.191,58.387,138.365z M203.119,194.365c0.092-0.529-0.174-1.059-0.265-1.5
		c-0.354-2.033-1.062-3.711-1.324-5.743c-0.09-0.528-0.175-1.147-0.443-1.677c0-0.089,0.178-0.177,0.093-0.353
		c-0.531-1.325-0.884-2.561-1.147-3.975c0-0.176,0-0.527-0.091-0.705c0-0.178-0.178-0.355-0.178-0.529
		c-0.439-2.473-1.146-4.679-1.411-7.066c-0.09-0.175-0.177-0.265-0.355-0.352c0.091-0.09,0.266-0.179,0.178-0.356
		c-0.09-0.439-0.532-0.617-0.268-1.059c0,0-0.172-0.088-0.172-0.179c0-0.265,0.172-0.619,0.086-0.881
		c-0.086-0.089-0.176-0.266-0.266-0.355c-0.09-0.178,0.18-0.44,0.09-0.528c-0.53-0.266-0.175-0.708-0.354-1.059
		c-0.266-0.709-0.266-1.413-0.443-2.212c-0.086-0.086-0.176-0.262-0.262-0.353c-0.094-0.266,0-0.529,0-0.795
		c0-0.09-0.178-0.09-0.178-0.178c0-0.353-0.089-0.706-0.353-0.97c-0.094-0.178,0.087-0.443,0-0.62
		c-0.268-0.619-0.531-1.146-0.531-1.855c0-0.176-0.092-0.438-0.092-0.705c-0.088-0.176-0.353-0.265-0.353-0.354
		c0.089-0.619-0.176-1.412-0.707-1.853c-0.088-0.091-0.354,0.085-0.442-0.091c0-0.088-0.087-0.265,0.091-0.355
		c-0.707-0.527-1.326-1.235-2.296-1.235c-0.088,0-0.354-0.176-0.441-0.088c-0.265,0-0.618-0.089-0.881,0
		c-0.532,0.088-0.972-0.089-1.502-0.089c-0.179,0-0.356,0.264-0.442,0.264c-0.44,0.088-0.971,0-1.414,0.178
		c-0.439,0.265-0.88,0.704-1.234,1.059c-0.618,0.53-1.323,0.883-1.854,1.59c-0.621,0.619-0.972,1.237-1.592,1.854
		c-0.089,0.087,0,0.264,0,0.44c0,0.178-0.176,0.089-0.264,0.089c-0.09,0.175-0.266,0.354-0.178,0.62
		c0,0.264-0.355,0.176-0.355,0.264c-0.087,0.353-0.262,0.706-0.436,0.884c-0.357,0.619-0.887,1.059-1.063,1.59
		c-0.089,0.352,0.088,0.618-0.354,0.53c-0.174,0-0.088-0.266-0.088-0.44c0.266-0.529,0.088-1.062,0.266-1.503
		c0.174-0.354,0.44-0.798,0.617-1.148c0.091-0.175-0.266-0.354,0-0.531c0.177-0.092,0.354,0.088,0.44-0.092
		c0-0.175-0.176-0.352-0.09-0.528c0.442-0.354,0.62-0.883,0.973-1.322c0.177-0.089,0-0.53,0.09-0.794
		c0.089-0.177,0.442-0.088,0.531-0.264c0.087-0.531,0.62-0.796,0.62-1.412c0-0.179,0.262-0.265,0.352-0.354
		c0.089-0.355-0.09-0.794,0.265-1.06h0.267c0.088-0.177-0.089-0.441,0-0.618c0.353-0.442,0.353-1.06,0.706-1.502
		c0.088-0.177-0.441-0.177-0.264-0.444c0.088-0.174,0.352,0,0.438-0.088c0.266-0.529,0.531-0.97,0.707-1.5
		c0-0.176,0.265-0.354,0.353-0.53c0.09-0.176-0.088-0.353,0-0.529c0.268-0.441,0.441-0.884,0.357-1.413c0-0.177,0.172,0,0.263-0.177
		c0.089-0.175-0.263-0.353,0-0.44c0.619-0.088,0.44-0.796,0.44-1.149c0-0.441-0.266-0.972-0.09-1.324
		c0.174-0.353-0.176-0.885,0.09-1.236c0.335-0.25,0.272-0.501,0.193-0.825c0.02-0.131,0.058-0.264,0.058-0.405
		c0.002-0.002,0.014-0.005,0.016-0.011c0.175-0.35,0.175-0.704,0.529-0.883c-0.266-0.439-0.176-1.148,0-1.589
		c0.265-0.62-0.176-1.414-0.266-2.031c-0.091-0.619-0.353-1.414,0.266-1.943c0.174-0.265-0.266-0.441-0.266-0.619
		c-0.176-0.619,0-1.238,0-1.855c0-0.178-0.091-0.619-0.091-0.883c-0.173,0-0.356,0-0.441-0.177
		c-0.088-0.265,0.356-0.176,0.441-0.353c-0.356-0.09-0.264-0.353-0.356-0.619c-0.262-0.53-0.086-1.236-0.173-1.855
		c-0.089-0.176,0.173-0.176,0.356-0.176c0.264-0.176,0.354-0.53,0.264-0.706c-0.176-0.53-0.091-1.147-0.091-1.677
		c-0.088,0-0.088,0-0.173,0c-0.182-0.089-0.091-0.354-0.269-0.529c-0.174-0.267,0.356-0.441,0.269-0.706
		c-0.182-0.53-0.707-0.884-0.533-1.412c0-0.176,0.177-0.442,0.091-0.619c-0.441-0.62-0.357-1.415-0.441-2.123
		c0-0.087-0.176-0.087-0.176-0.176c-0.09-0.264,0.176-0.529,0.093-0.793c-0.093-0.175-0.271-0.44-0.181-0.619
		c0.354-0.441,0.266-0.883,0.442-1.322c0.089-0.177,0.266-0.441,0.177-0.707c-0.09-0.09-0.177-0.179-0.267-0.267
		c0-0.266,0-0.618,0-0.618c-1.148-0.355-2.297-0.355-3.444-0.619c-0.09,0-0.267,0.177-0.354,0.177
		c-0.176,0.088-0.443,0.088-0.707-0.09c-0.265-0.176-0.617,0-0.885-0.088c-0.97-0.354-1.939-0.53-2.912-0.354
		c-0.176,0-0.444,0.176-0.708,0.354h-0.353c-0.088,0-0.177,0.088-0.177,0.176c0,0.883-0.267,1.678-0.442,2.647
		c-0.089,0.09-0.175,0.176-0.263,0.264c0,0.266-0.09,0.441-0.178,0.619c0,0.176,0.092,0.353,0,0.527
		c-0.354,0.62-0.53,1.238-0.616,1.946c-0.09,0.174-0.356,0.264-0.271,0.352c0.093,0.354-0.173,0.708-0.173,0.972
		c-0.176,0.706-0.532,1.325-0.62,2.119c-0.088,0.087-0.174,0.263-0.264,0.354c-0.092,0.174,0,0.441,0,0.619
		c-0.092,0.088-0.18,0.263-0.267,0.352c-0.089,0.176,0.087,0.44,0,0.619c-0.173,0.264-0.353,0.44-0.438,0.708
		c0,0.529,0,1.06-0.179,1.5c-0.266,0.531-0.175,1.148-0.441,1.679c-0.178,0.352,0,0.706-0.089,1.058
		c-0.09,0.089-0.175,0.263-0.264,0.353c0,0.176,0.174,0.354,0.089,0.529c-0.619,1.327-0.532,2.74-0.884,4.063
		c-0.176,0.619,0,1.236-0.176,1.854c-0.089,0.179-0.089,0.53-0.089,0.708c-0.173,1.322-0.355,2.56-0.442,3.797
		c0,0-0.088,0.266,0.088,0.266c-0.088,0.265-0.265,0.617-0.35,0.884c-0.093,0.792,0,1.5-0.269,2.294c0,0.354,0.176,0.619,0.09,0.973
		c-0.09,0.088-0.175,0.176-0.268,0.263c0,0.088,0.178,0.265,0.093,0.355c-0.439,0.439-0.266,0.971-0.176,1.503
		c0,0.087,0.176,0.263,0.087,0.44c0,0.089-0.173,0.089-0.173,0.176c0.087,0.528-0.091,0.973,0,1.413
		c0,0.088-0.091,0.088-0.179,0.088v0.529c0,0.53-0.264,1.149-0.175,1.677c0,0.266-0.089,0.443,0,0.708
		c0,0.174,0.354,0.088,0.264,0.265c-0.353,0.264-0.442,0.619-0.353,0.971c0.176,0.442-0.092,0.973,0,1.413
		c0,0.177,0.265,0.177,0.353,0.265c0,0.087,0,0.175-0.089,0.175c-0.09,0-0.175,0-0.175,0c-0.267,0.529-0.354,1.059-0.354,1.589
		c0,0.178,0,0.528,0.087,0.795c0.088,0.178,0.267,0.355,0.178,0.532c-0.441,0.704-0.795,1.412-1.063,2.207
		c-0.087,0.265-0.526,0.356-0.703,0.706c-0.44,0.797-0.8,1.591-1.502,2.032c-0.441,0.265-0.705,1.06-1.237,0.881
		c-0.263-0.087-0.263-0.617-0.354-0.881c-0.264-1.149-0.086-2.382-0.882-3.355c0.09,0,0.09-0.089,0.09-0.178
		c-0.09-0.09-0.355-0.09-0.355-0.266c0.087-0.439,0-0.883-0.179-1.237c-0.088-0.266-0.525-0.441-0.525-0.795
		c-0.092-0.353,0.176-0.708,0.089-1.06c-0.178-0.353-0.532-0.441-0.708-0.796c-0.089-0.088,0.176-0.265,0.09-0.44
		c-0.178-0.177-0.442-0.265-0.355-0.618c0-0.09-0.174-0.09-0.174-0.178c-0.088-0.177,0.174-0.177,0.174-0.264
		c0-0.267-0.262-0.442-0.174-0.62c0.087-0.704-0.355-1.237-0.355-1.94c0-0.354-0.264-0.797-0.439-1.149c0,0,0.178-0.088,0.178-0.176
		c0.088-0.529-0.268-0.795-0.354-1.236c0-0.088-0.179-0.265-0.179-0.532c0-0.088-0.175-0.088-0.175-0.175
		c0-0.53,0.091-0.884-0.53-0.97c0-0.09,0.088-0.09,0.174-0.09c0-0.177-0.088-0.353-0.174-0.442c0-0.176,0.174-0.351,0.088-0.53
		c-0.088-0.085-0.176,0.179-0.263,0.09c-0.44-0.353-0.175-0.62,0.175-0.796c-0.088-0.177-0.439-0.088-0.352-0.353
		c0.089-0.176,0.352-0.09,0.439,0.088c0.177-0.179,0.088-0.354-0.088-0.442c0.088,0,0.088-0.088,0.088-0.176
		c-0.088-0.088-0.088-0.088-0.088-0.176c0,0.088-0.088,0.088-0.175,0.088c-0.265-0.177-0.265-0.53-0.442-0.708
		c0.087,0,0.087-0.089,0.087-0.177c-0.087-0.265-0.53-0.354-0.44-0.619c0.088-0.265,0.44-0.354,0.355-0.619
		c-0.176-0.44-0.619-0.795-0.355-1.325c0.088,0.089,0.176,0.177,0.267,0c0-0.087,0-0.087,0-0.177c-0.267,0-0.443,0.177-0.529-0.088
		c0-0.265-0.092-0.53,0-0.794c0.086-0.263-0.092-0.529-0.179-0.706c-0.266-0.442,0.088-1.061-0.354-1.415
		c-0.088,0-0.352,0.088-0.439-0.088c0-0.352,0.176-0.706-0.178-0.883c0.178-0.178,0.619-0.266,0.355-0.53
		c-0.087-0.179-0.176-0.354-0.176-0.531c0-0.088,0.09-0.088,0.176-0.088c0-0.441,0.088-0.884,0-1.324
		c0-0.088,0.175-0.088,0.175-0.177c-0.089-0.354-0.444-0.266-0.444-0.619c0-0.089,0.093-0.264,0.181-0.354
		c-0.09-0.088-0.181-0.088-0.181-0.176c-0.087-0.354,0.093-0.706,0.356-0.706c0.441-0.088,0.883-0.088,1.238-0.353
		c-0.179-0.088-0.09-0.265-0.09-0.354c0.09-0.263,0.354-0.087,0.62-0.087c0.174-0.088,0.174-0.266,0.352-0.355
		c0.18,0,0.267-0.088,0.445-0.176c0.171-0.089,0.353,0.176,0.528,0.088c0.177-0.087,0.354-0.264,0.44-0.264
		c0.971-0.442,2.119-0.265,2.826-0.971c0.177-0.089,0.533-0.266,0.621-0.529c0.086-0.353,0.173-0.618,0.354-0.884
		c0.266-0.353,0.092-0.619-0.354-0.883v-0.265c-0.441-0.265-0.532-0.795-0.974-1.147c-0.174-0.09-0.354-0.53-0.174-0.796
		c0.266-0.353,0.795-0.44,1.148-0.263c0-0.179,0.175-0.091,0.263-0.179c0.092-0.088,0.265,0.179,0.441,0.088
		c0.355-0.353,0.795-0.353,1.237-0.265c0.088,0.088,0.176,0.088,0.266,0.088c0.354,0.088,0.884,0,1.148-0.264
		c0.264-0.441,0.264-1.06-0.266-1.326v-0.265c-0.443-0.264-0.971-0.176-1.503-0.264c-0.09-0.087-0.09-0.353-0.265-0.353
		c-0.354,0-0.62-0.178-0.882-0.353c-0.356-0.09-0.621,0.175-0.976,0.088c-0.351-0.177-0.616-0.441-0.97-0.53
		c-0.438-0.177-0.883-0.353-1.412-0.441c-0.179-0.087-0.266-0.441-0.529-0.353c-0.709,0.177-1.328-0.354-1.942-0.088
		c-0.71,0.265-1.504,0.175-2.21,0.265c-0.087,0-0.263-0.177-0.174-0.354c0.174-0.177,0.088-0.441,0.263-0.618
		c0.088-0.265-0.263-0.441-0.263-0.619c0-0.178,0.174-0.353,0.174-0.441c0.176-0.619,0.176-1.325,0.089-2.032
		c0-0.088-0.175-0.088-0.175-0.176c0-0.175,0-0.442-0.176-0.53c0.352-0.531,0.619-1.147,0.526-1.678
		c-0.087-0.176-0.263-0.619-0.175-0.795c0.175-0.353,0.619-0.619,0.531-1.236c0-0.088,0.175-0.088,0.175-0.176
		c0-0.176-0.263-0.265-0.175-0.441c0.708-0.443,0.529-1.237,0.442-1.855c-0.088-0.265-0.442-0.265-0.707-0.265
		c-1.503,0.177-2.916-0.176-4.416-0.088c-0.353,0.088-0.707,0.352-0.971,0.531v0.439c-0.09,0.354,0,0.618,0.174,0.972
		c0.09,0.177-0.265,0.442-0.265,0.619c0,0.97-0.087,1.942-0.263,2.914c0,0.441-0.176,0.885-0.267,1.235
		c-0.175,1.414-0.088,2.826-0.439,4.239c-0.177,0.529-0.884,0.707-1.502,0.354c-0.088,0-0.265,0.175-0.355,0.175
		c-0.174-0.089-0.352-0.089-0.527-0.089c-0.531,0.355-1.062,0.266-1.59,0.355c-1.414,0.176-2.828-0.176-4.238-0.088
		c-0.088,0-0.176,0.176-0.176,0.176c-0.441-0.176-0.972-0.176-1.413-0.176h-5.652c-0.088,0-0.265,0.176-0.354,0.264
		c-0.706,0.088-1.413-0.176-2.121,0.179c-0.089,0-0.265,0-0.354-0.09c-0.265-0.088-0.529,0.264-0.705,0.177h-4.15
		c-0.088,0-0.175,0.265-0.266,0.265c-1.147,0.176-2.12,0.353-3.265,0.353c-0.179,0-0.355,0.179-0.531,0.263
		c-0.266,0.09-0.443-0.176-0.706-0.086c-0.531,0.352-1.148-0.092-1.679,0.352c-0.089-0.176-0.354-0.087-0.444-0.087
		c-0.263-0.088-0.526,0.176-0.792,0.176c-0.619,0-1.412-0.089-2.033,0.177c-0.44,0.178-0.97,0.53-1.234,1.061
		c-0.089,0.264-0.089,0.706,0.089,0.973c0.265,0.263,0.619,0.527,0.884,0.706c0.531,0.263,1.147,0.177,1.676,0.354
		c0.44,0.089,0.884,0.528,1.323,0.794c0.354,0.177,1.062,0,1.325,0.619c0.706-0.175,1.235,0.53,2.034,0.44
		c0.174,0,0.264,0.265,0.438,0.354c0.444,0.176,0.883,0,1.326,0.176c0.088,0.088,0.175,0.088,0.175,0.265
		c0.441,0,0.885,0.088,1.237-0.265c0.174-0.089,0.266,0.088,0.354,0.176c0.531,0.088,0.883-0.176,1.325,0
		c0.087,0,0.174-0.266,0.266-0.266c1.059,0.178,2.12,0.089,3.178,0.178h0.267c2.386-0.178,4.681-0.088,7.064,0
		c0,0,0.267-0.088,0.267,0.088c0.53-0.176,0.972-0.176,1.587-0.088c0.18,0.088,0.356,0.177,0.532,0.264
		c0.089,0.089,0.355-0.087,0.442,0c0.089,0.089,0.263,0,0.263,0.177c0.266-0.177,0.531-0.088,0.796-0.088
		c1.147-0.264,2.296,0.265,3.445,0.265c0.088,0,0.263,0.265,0.442,0.265c0.618-0.09,1.059,0.263,1.589,0.618
		c0.089,0.087,0,0.353,0,0.529c0.089,1.061-0.354,2.032-0.618,3.091c-0.175,0.443-0.268,0.973-0.441,1.412
		c-0.353,1.149-0.621,2.208-0.971,3.354c-0.089,0.267-0.354,0.533-0.354,0.708c-0.265,1.237-0.882,2.12-1.059,3.267
		c0,0.176-0.267,0-0.267,0.176c-0.088,0.619-0.438,1.149-0.619,1.68c-0.088,0.353-0.264,0.793-0.264,1.236
		c-0.09,0.265-0.356,0.53-0.356,0.882c0,0.179-0.264,0-0.264,0.179c-0.264,1.148-1.06,2.12-1.148,3.357
		c-0.088,0.088-0.264,0.088-0.353,0.263c-0.177,0.353-0.354,0.705-0.619,1.059c-0.092,0.179,0,0.442-0.092,0.708
		c-0.703,1.236-1.146,2.561-1.499,3.883c-0.087,0.176-0.263,0.265-0.352,0.442c-0.091,0.62-0.268,1.324-0.53,1.942
		c-0.356,0.705-0.443,1.5-0.886,2.208c-0.09,0.092-0.176,0-0.176-0.09c0-0.97-0.175-1.854,0.088-2.823
		c0-0.179,0.09-0.442,0.18-0.619c0.263-1.062,0.087-2.121,0.263-3.18c0-0.088,0.088-0.265,0.265-0.441
		c0.088-0.09-0.176-0.178-0.176-0.265c0-0.53,0.176-1.059,0.443-1.501c0.176-0.353-0.178-0.708,0-1.06
		c0-0.089-0.089-0.265-0.267-0.354c0.355-0.441,0-1.236-0.44-1.679c-0.088-0.086,0.264-0.263,0.176-0.527
		c-0.087-0.089-0.263-0.176-0.263-0.265c0.438-1.148-1.413-0.973-1.592-1.676c0-0.441,0.264-0.973,0.619-1.415
		c0.088-0.174,0-0.353,0-0.529c-0.09,0-0.176,0-0.176-0.088v-0.264c-0.441-0.529-1.324-0.885-1.941-0.441
		c-0.176-0.353-0.707-0.265-0.971-0.088c-0.531,0.265-0.708,0.971-0.971,1.586c0,0.091-0.09,0.267,0.089,0.355
		c-0.177,0.088-0.266,0.265-0.356,0.443c0,0.178,0.09,0.352,0,0.442c-0.176,0.263-0.176,0.529-0.263,0.794
		c-0.175,0.354-0.44,0.706-0.44,1.148c-0.091,0.174-0.354,0.264-0.442,0.444c0,0.086-0.088,0.353,0.09,0.44
		c-0.176,0.177-0.264,0.442-0.264,0.707c-0.091,0.089-0.176,0.266-0.176,0.443c-0.091,0.174-0.267,0.264-0.531,0.264v0.265
		c-0.439,0.175-0.439,0.618-0.439,0.973c-0.09,0.263-0.264,0.351-0.529,0.263c0.087,0.355-0.356,0.529-0.532,0.795
		c0.09,0,0.176,0,0.176,0.09v0.353c0,0.088-0.176,0.088-0.176,0.175v0.354c-0.531,0.618-0.706,1.235-1.148,1.942
		c-0.088,0.086-0.265,0.086-0.352,0.175c-0.177,0.529-0.798,0.795-0.973,1.324c-0.088,0.176-0.438,0.176-0.438,0.265
		c-0.356,0.619-0.797,1.06-1.237,1.503c-2.297,2.737-4.503,5.209-6.978,7.771c-0.263,0.178-0.355-0.265-0.355-0.441
		c0-0.885,0.093-1.767,0.355-2.562c0.175-0.441,0-0.971,0.088-1.415c0.531-1.765,1.324-3.353,2.03-5.032
		c0-0.173,0.266-0.352,0.355-0.619c0.176-0.175,0.09-0.705,0.353-0.97c0,0,0.088,0,0.174,0c0-0.178,0-0.353,0.094-0.528
		c0.438-0.885,0.969-1.59,1.146-2.561c0.091-0.179,0.266-0.354,0.441-0.531v-0.343c0.088-0.179,0.267-0.179,0.356-0.265
		c0.438-1.061,1.146-2.033,1.676-3.093c0.088-0.088,1.834-1.902,1.834-2.078c0-0.352,1.297-1.559,1.474-1.823
		c0.049-0.074,0.07-0.164,0.08-0.255c0.582-0.627,1.134-1.189,1.321-1.434c0.201-0.261,0.383-0.492,0.519-0.746
		c0.126-0.129,0.292-0.225,0.562-0.23c-0.085-0.116-0.29-0.262-0.129-0.424c0.022-0.093,0.247-0.045,0.247-0.045
		c0.319-0.324-0.169-0.726-0.074-1.102c-0.448-0.099-0.945-0.01-1.208-0.363c-0.031-0.042-0.034-0.076-0.021-0.106
		c-0.023-0.001-0.042-0.009-0.068-0.013c-0.026,0.095-0.047,0.187-0.047,0.187c-0.027,0.003-0.043,0.01-0.062,0.015
		c-0.049-0.06-0.099-0.114-0.15-0.166c-0.045-0.047-0.094,0.006-0.14,0.053c-0.173-0.294-0.558-0.459-0.787-0.417
		c-0.411,0.206-0.232,0.149-0.682,0.051c-0.109-0.025-0.092,0.137-0.07,0.045c-0.022,0.092-0.039-0.07-0.154-0.096
		c-0.113-0.026-0.113-0.026-0.227-0.049c-0.11-0.024-0.062-0.213-0.062-0.213c-0.399-0.285-0.565,0.368-1.015,0.27
		c-0.417-0.021-0.393-0.017-0.731,0.012c-0.006,0-0.011,0-0.016,0c-0.048-0.075-0.092-0.152-0.141-0.155
		c-0.001,0.001-0.007,0.001-0.01,0.001c-0.034,0.049-0.061,0.098-0.091,0.147c-0.41,0.001-0.839,0.045-1.267-0.008
		c-0.265-0.085-0.53,0.179-0.884,0.266c-0.881,0.177-1.5,0.883-2.295,1.237c-0.353,0.263-0.528,0.707-0.795,0.972
		c-1.059,1.149-1.942,2.295-3.001,3.355c-0.797,0.972-4.367,4.343-5.075,5.402c-0.088,0.088,0,0.355,0,0.442
		c-0.176,0.264-0.443,0.354-0.531,0.708c-0.263,0.883-1.237,1.324-1.413,2.294c-0.088,0.088-0.355,0.176-0.355,0.176
		c-0.1,0.186-0.21,0.36-0.321,0.529c-1.396,1.077-3.13,3.234-3.802,4.145c-0.336,0.455-0.677,0.997-1.04,1.551
		c-0.264,0.22-0.542,0.437-0.841,0.662c-0.354,0.265-0.354,0.794-0.706,1.148c-0.089,0.088-0.175,0-0.175-0.088
		c0-0.528-0.089-1.061,0.088-1.591c0.243-0.732-0.104-1.463,0.115-2.125c-0.011,0.001-0.017,0.006-0.028,0.006
		c-0.089,0-0.098-0.469-0.098-0.555c0.443-1.237,0.098-2.094,0.451-3.418c0.088-0.177-0.089-0.441-0.089-0.618
		c0.441-1.589,0.441-3.092,0.708-4.681c0.177-0.618,0.177-1.236,0.09-1.855c-0.177,0-0.268-0.176-0.268-0.176
		c0.178-0.531,0.356-1.061,0.178-1.59c-0.09-0.529,0.09-0.971,0.09-1.412c-0.09,0-0.177,0-0.177-0.091
		c0.089-1.324,0.618-2.561,0.353-3.884c-0.088-0.265-0.088-0.529-0.175-0.795c-0.09-0.088-0.267-0.175-0.267-0.265
		c0-0.177,0.178-0.619-0.175-0.619c-0.089,0-0.089,0.088-0.177,0.175c-0.088-0.175-0.354-0.263-0.088-0.439h0.354
		c-0.088-0.088-0.175-0.264-0.175-0.441c0-0.088,0.175-0.088,0.263-0.088c0.09-0.176,0-0.353-0.175-0.441
		c0.355-0.353,0.443-0.796,0.355-1.238c0-0.087-0.179-0.174-0.355-0.087c-0.088-0.443-0.619-0.619-0.619-1.149
		c-0.089,0-0.176,0-0.265,0.09c-0.177-0.265-0.442-0.444-0.53-0.707c-0.353-0.531,0-1.148-0.175-1.767
		c-0.09-0.53-0.09-1.06-0.443-1.59c-0.088-0.176-0.088-0.441-0.354-0.529h-0.705c-0.533-0.177-0.971-0.708-1.502-0.441
		c-0.265,0.086-0.619,0.263-0.971,0.441c-0.353,0.088-0.796,0-1.236-0.088c-0.621,0-1.238,0.266-1.854,0.441
		c-0.177,0-0.356,0.355-0.531,0.618h-0.265c-1.061,0.973-1.943,1.943-3.004,3.004v0.265c-0.795,0.794-1.5,1.677-2.032,2.648
		c-0.175,0.179-0.44,0.265-0.528,0.443c0,0.175-0.174,0.354-0.174,0.528c-0.089,0.177-0.267,0.177-0.356,0.265v0.263
		c-0.263,0.267-0.438,0.62-0.619,0.975c-0.175,0.352-0.439,0.792-0.792,1.147h-0.266c-0.091,0.088,0.176,0.264,0.087,0.353
		c-0.353,0.177-0.44,0.529-0.616,0.884c-0.443,0.707-0.708,1.502-1.149,2.209c-0.177,0.176-0.088,0.529-0.177,0.794
		c-0.353,0.706-0.796,1.325-0.883,2.12c0,0.088-0.176,0.176-0.265,0.263c-0.092,0.443-0.266,0.883-0.444,1.236
		c-0.174,0.443-0.174,1.061-0.531,1.504c-0.173,0.088-0.173-0.267-0.263-0.267c-0.176,0.09,0,0.441-0.264,0.53
		c-0.177,0.089-0.267-0.088-0.356-0.177c-0.088-0.176,0.176-0.176,0.176-0.265c0-0.267-0.265-0.443-0.176-0.62
		c0.088-0.793,0.531-1.676-0.088-2.296c-0.176-0.088-0.441,0-0.53-0.177c0-0.088,0-0.176,0.088-0.265
		c-0.265-0.439,0-1.059-0.176-1.589c0-0.089,0.266-0.089,0.176-0.265c-0.088-0.088-0.265-0.175-0.265-0.264
		c-0.088-0.354,0.089-0.795,0-1.147c-0.088-0.265-0.53-0.442-0.796-0.531c-0.529-0.265-1.327-0.177-2.031-0.088l-0.527,0.264
		c-0.265,0.089-0.618,0.089-0.886,0.089c-0.707,0.175-1.146,0.793-1.942,0.793c-0.352,0.088-0.527,0.441-0.527,0.795
		c-0.026,0.138-0.034,0.276-0.038,0.416c-0.025,0.047-0.045,0.098-0.059,0.159c-0.076,0.337-0.014,0.671-0.037,1.015
		c-0.025,0.334,0.002,0.5-0.133,0.78c-0.104,0.213-0.5,0.24-0.566,0.39c-0.228,0.537,0.373,0.986,0.344,1.584
		c-0.009,0.235-0.195,0.42-0.195,0.727c0,0.295,0.156,0.433,0.19,0.722c0.147,1.233-0.301,2.301-0.19,3.485
		c0.048,0.538,0.13,1.091,0.206,1.639c-0.09,0.854-0.169,1.702-0.203,2.467c-0.278,0.325-0.527,0.636-0.744,0.914
		c-0.275,0.205-0.536,0.431-0.726,0.64c-0.134,0.152-0.152,0.367-0.359,0.556c-0.359,0.323-0.558,0.214-0.778,0.692
		c-0.078,0.163-0.045,0.691-0.119,0.783c-0.128,0.171-0.562,0.373-0.753,0.537c-0.437,0.378-0.523,0.926-0.916,1.279
		c-0.229,0.207-0.493,0.314-0.751,0.441c-0.002-0.017-0.005-0.032-0.008-0.046c-0.097-0.017-0.187-0.017-0.275-0.008
		c-0.47-2.036-0.984-4.122-1.443-5.469c-0.2-0.206-0.444-0.381-0.614-0.663c-0.088-0.177,0.177-0.266,0.089-0.441
		c-0.53-0.618-0.619-1.412-0.619-2.119c0-0.087-0.175-0.353-0.264-0.529v-0.352c0-1.235-1.416-2.382-0.444-3.62
		c0.089-0.175,0-0.44-0.176-0.53c0.176-0.175,0.176-0.44,0.354-0.529c-0.176-0.265-0.176-0.53-0.264-0.796
		c0-0.087,0.175-0.175,0.264-0.265c0.056,0,0.112,0.003,0.144,0.029c-0.116-0.203-0.417-0.22-0.496-0.38
		c-0.266-0.708-0.53-1.589,0-2.298c-0.44-0.353-0.266-0.971-0.177-1.412c0.177-1.06,0.355-2.119,0.355-3.181
		c0-0.441,0-1.147-0.265-1.324c-0.619-0.53-1.589-0.793-2.471-0.618c-0.356,0-0.708,0.264-0.708,0.618
		c0,0.619-0.532,0.971-0.532,1.59c0,0.264-0.265,0.529-0.353,0.795c0,0.088,0.178,0.265,0.178,0.352
		c-0.442,0.796-0.442,1.504-0.442,2.387c0,0.088-0.178,0.088-0.178,0.174c-0.087,0.179,0.09,0.266,0.178,0.356
		c0,0.263-0.441,0.527-0.088,0.704c-0.091,0.177-0.355,0.352-0.267,0.53c0.09,0.619-0.442,1.06-0.527,1.502
		c-0.177,0.708-0.092,1.502-0.092,2.209c0,0.087-0.263,0.175-0.175,0.354c0.175,0.354,0.089,0.706,0,0.972
		c-0.088,0.441,0.089,0.883-0.175,1.324c-0.088,0.088-0.267,0.263-0.267,0.353c0.086,0.265,0.086,0.529,0.086,0.794
		c-0.086,0.178-0.352,0.353-0.086,0.529c-0.091,0.09-0.091,0.09-0.176,0.178c0.263,0.178,0.176,0.352,0.176,0.62
		c0,0.087-0.176,0.087-0.176,0.176c-0.088,0.355-0.088,0.617-0.088,0.883c-0.088,0.619,0,1.59-0.441,2.118
		c-0.444,0.441-0.09,1.238-0.266,1.855c-0.177,0.53-0.265,0.971-0.265,1.5c0,0.618-0.088,1.237-0.264,1.768
		c-0.087,0.352-0.354,0.704-0.354,1.148c-0.088,0.089-0.264,0.174-0.264,0.266c0,0.174-0.177,0.354-0.088,0.617
		c0.174,0.53-0.531,0.793-0.442,1.324v0.353c0,0.178-0.264,0-0.264,0.178v0.354c-0.265,0.268-0.176,0.529-0.265,0.795
		c-0.092,0.174-0.178,0.352-0.178,0.617c0,0.088-0.09,0.088-0.174,0.088c0.086,0.44,0,0.974,0.174,1.413
		c0.178,0.264,0.355,0.441,0.531,0.795c0.088,0.263,0.356,0.526,0.619,0.708c0.263,0.088,0.619-0.091,0.97,0
		c0.179,0.088,0.354,0.352,0.532,0.352c0.707,0.267,1.5,0.179,2.208,0.179c0.265-0.091,0.704,0.175,0.97,0.089
		c0.178,0,0.442-0.178,0.706-0.178c0.268,0.09,0.621,0.178,0.883,0.178c0.708-0.178,1.327-0.089,1.945,0h0.265
		c0.796,0.087,1.592-0.089,2.296-0.355c0.354-0.088,0.708-0.264,0.796-0.795c0.033-0.131,0.108-0.237,0.21-0.33
		c0.128-0.061,0.26-0.156,0.39-0.271c0.439-0.259,0.942-0.509,0.9-1.143c0.024-0.035,0.044-0.07,0.067-0.104
		c0.08-0.06,0.2-0.12,0.2-0.181c0-0.048-0.004-0.093-0.009-0.139c0.561-0.97,1.028-2.02,1.263-2.406
		c0.012-0.017,0.024-0.035,0.033-0.052c0.122-0.015,0.236-0.044,0.343-0.164c0.162-0.181,0.16-0.491,0.237-0.718
		c0.337-0.487,0.703-0.984,1.083-1.487c0.149-0.182,0.304-0.358,0.477-0.503c0.045-0.04,0.086-0.066,0.122-0.098
		c-0.095,0.587-0.268,1.149-0.156,1.715c0,0.089,0.176,0.265,0.088,0.441c0,0.088-0.174,0.177-0.174,0.177
		c0.263,0.439-0.179,0.882,0,1.233c0.174,0.356-0.356,0.529-0.179,0.886c0,0,0.179,0,0.179,0.089c-0.09,0.354,0,0.619,0.088,0.881
		c0,0.178-0.267,0.266-0.354,0.445c-0.09,0.262,0.354,0.174,0.441,0.438c0,0.177-0.354,0.266-0.354,0.443
		c-0.088,0.794-0.088,1.5-0.176,2.294c0,0.444,0.09,0.973,0.09,1.414c0.088,1.146-0.09,2.295,0,3.444
		c0,0.09,0.176,0.179,0.267,0.267c-0.09,0.088-0.179,0.176-0.267,0.264c-0.09,0.176,0.176,0.266,0.176,0.354
		c-0.176,0.971-0.091,1.943-0.091,2.915c0,0.353,0.179,0.708,0.266,1.059c0.263,1.061-0.087,2.209,0.089,3.271
		c0.174,0.791-0.089,1.763-0.089,2.562c0,0.174,0.176,0.442,0.176,0.704c-0.088,0.177-0.263,0.354-0.176,0.529
		c0,0.088,0.176,0.088,0.176,0.178c0.087,0.266,0,0.618,0.087,0.883c0.176,0.44,0.176,0.882,0.356,1.326
		c0.088,0.089,0.353,0.44,0.088,0.44c-0.267,0.091-0.531,0-0.531,0.264c0,0.53-0.088,1.149,0,1.679
		c0.087-0.09,0.087-0.266,0.263-0.176c0.092,0,0.092,0.088,0.092,0.176c-0.092,0.088-0.179,0.088-0.179,0.177
		c-0.089,0.264-0.089,0.705-0.089,0.884c0,1.061-0.617,2.471,0.176,3.354c0.18,0.093,0.443-0.177,0.622-0.086
		c0.528,0.352,1.147,0.086,1.675,0.178c0.443,0.088,0.886,0,1.325-0.092c0.175,0,0.355,0.178,0.531,0.178
		c0.618,0,1.236-0.178,1.854-0.265c0.089,0,0.089,0.178,0.176,0.178c0.708,0,1.238-0.268,1.942-0.444
		c0.619-0.089,0.883-0.708,0.883-1.32c0-0.089-0.173-0.268-0.173-0.356c0.354-0.53,0.265-1.148,0.173-1.677
		c0-0.088,0.18-0.088,0.18-0.179c0.087-0.264-0.18-0.441-0.09-0.706c0.265-0.443,0.265-0.97,0.353-1.499
		c0.619-4.151,1.236-7.948,2.028-12.101c0.179-0.796,0.356-1.589,0.532-2.385c0.175-0.529,0-1.059,0.087-1.59
		c0.089-0.087,0.177-0.176,0.268-0.264c0.264-0.972,0.351-1.854,0.527-2.828c-0.527-0.178-0.176-0.706-0.176-1.059
		c0-0.089,0.267-0.089,0.267-0.089c0-0.176,0-0.355,0.176-0.531c0.089-0.264-0.09-0.528,0.175-0.707H87
		c-0.176-0.264,0-0.617,0-0.795c0.09-0.618-0.088-1.325,0.178-1.855c0.176-0.264,0.353-0.527,0.353-0.972
		c0-0.087-0.088-0.087-0.176-0.175c0.176,0,0-0.265,0.176-0.265c-0.088-0.265,0.09-0.619,0.09-0.887
		c0-0.439,0.088-0.883,0.263-1.233c0.176-0.443,0-1.06,0-1.589c0.088-0.178,0.176-0.354,0.176-0.619
		c-0.091-0.177-0.353-0.177-0.353-0.264c0-0.091,0.353-0.091,0.353-0.266c0-0.266,0.092-0.441,0.177-0.62
		c0-0.441,0.09-0.972,0-1.412c0-0.091,0.176-0.176,0.265-0.265c0.176-0.794,0.176-1.591,0.087-2.388
		c-0.087,0.092-0.263,0.271-0.353,0.18c-0.268-0.439,0.265-0.885,0.265-1.324c-0.088-0.179,0.355-0.179,0.442-0.354
		c0.088-0.354-0.62-0.44-0.531-0.795c0.175-0.267,0.619-0.354,0.619-0.706c0-0.265-0.354-0.265-0.444-0.441
		c-0.087-0.265,0.269-0.353,0.269-0.44c0.175-0.266-0.355-0.089-0.355-0.355c-0.088-0.618,0.087-1.149,0.087-1.765
		c-0.087,0-0.174,0-0.174,0c-0.264-0.354-0.088-0.796-0.354-1.149c-0.091-0.088,0.092-0.353,0.354-0.263
		c-0.088-0.354-0.354-0.796-0.176-0.883c0.353-0.266,0.621-0.53,0.441-0.973c0-0.176-0.09-0.355-0.09-0.529
		c-0.087,0-0.174,0-0.174-0.088c0-0.089,0-0.178,0.088-0.178c0.883,0.178,0.441-0.794,0.531-1.324c0-0.088-0.443-0.177-0.266-0.441
		c0.354-0.529,0.795-0.883,1.236-1.323v-0.527c0-0.265,0.353-0.442,0.266-0.795c0-0.09,0.265-0.09,0.265-0.09
		c0.088-0.265-0.09-0.529,0.265-0.706v-0.265c0.176-0.177,0.439-0.353,0.439-0.706c-0.175,0-0.175-0.09-0.263-0.177
		c-0.09-0.354,0.263-0.618,0.53-0.883c0.618-0.354,0.618-1.323,1.148-1.678c0.355-0.264,0.442-0.527,0.529-0.793
		c0.355-0.795,0.707-1.503,1.237-2.12c0.088-0.086,0.267-0.264,0.443-0.176c0-0.529,0.44-0.795,0.619-1.236
		c0.175-0.265,0.354-0.442,0.617-0.707c0.266,0.264,0.443,0.707,0.266,0.972c-0.09,0.175,0,0.353-0.177,0.529
		c-0.089,0.266,0.177,0.618,0.177,0.971c0,0.09-0.09,0.179-0.266,0.179c0,0.794,0,1.677-0.175,2.472
		c0,0.089,0.263,0.089,0.175,0.266c-0.088,0.087-0.088,0.175-0.263,0.175c0.175,1.591-0.531,3.093-0.354,4.681
		c-0.531,0.439-0.266,1.238-0.443,1.856c-0.088,0.086-0.263,0.175-0.263,0.263c0.088,0.354,0.175,0.794,0,1.062
		c-0.268,0.44-0.268,1.06-0.356,1.502c-0.088,0.441-0.175,0.972-0.175,1.5c-0.088,0.088-0.176,0.265-0.264,0.353
		c-0.09,0.971-0.09,1.943-0.355,2.915c-0.088,0.088,0,0.353,0.175,0.529c0.09,0.089-0.088,0.177-0.088,0.353
		c-0.088,0.177-0.263,0.265-0.263,0.353c-0.355,0.972-0.267,1.943-0.441,2.916c-0.091,0.088,0.263,0.266,0.174,0.443
		c-0.174,0.174-0.353,0.354-0.088,0.526c-0.049,0.071-0.091,0.138-0.127,0.212c-0.039-0.007-0.079-0.011-0.121-0.013
		c-0.025,0.126-0.027,0.243-0.024,0.362c-0.147,0.47-0.16,0.971-0.347,1.469c-0.088,0.53,0.088,1.147-0.176,1.677
		c-0.067,0.133,0.116,0.266,0.172,0.398c-0.008,0.068-0.014,0.134-0.027,0.197c-0.033,0.033-0.09,0.056-0.147,0.113
		c-0.047,0.094,0.004,0.161,0.051,0.22c-0.035,0.094-0.071,0.175-0.099,0.255c-0.31,0.348-0.193,0.836-0.257,1.302
		c-0.001,0.007-0.004,0.014-0.008,0.02c-0.008,0.032-0.01,0.064-0.012,0.098c-0.026,0.106-0.06,0.213-0.116,0.312
		c0.036,0,0.074,0,0.105,0.011c0.003,0.112,0.011,0.227,0.01,0.33c0,0.106-0.007,0.19-0.016,0.265
		c-0.056,0.116-0.105,0.237-0.152,0.36c-0.047,0.061-0.104,0.125-0.181,0.21c-0.204,0.226-0.12,0.361-0.169,0.691
		c-0.101,0.023-0.163,0.092-0.262,0.114c-0.041,0.762,0.074,1.104-0.291,1.707c-0.162,0.267-0.31,0.504-0.418,0.761
		c-0.101,0.134-0.237,0.234-0.464,0.249c0.076,0.114,0.249,0.252,0.12,0.417c-0.017,0.094-0.206,0.053-0.206,0.053
		c-0.26,0.334,0.163,0.722,0.092,1.101c0.378,0.084,0.365-0.051,0.598,0.296c0.029,0.041,0.457,0.105,0.448,0.133
		c0.017,0.002,0.037,0.009,0.057,0.011c0.019-0.094,0.033-0.189,0.033-0.189c0.208-0.051,0.094-0.105,0.267,0.029
		c0.137,0.324,0.496,0.504,0.704,0.452c0.335-0.22,0.189-0.154,0.565-0.072c0.095,0.02,0.128-0.332,0.111-0.239
		c0.017-0.093-0.018,0.259,0.081,0.281c0.096,0.021,0.096,0.021,0.191,0.041c0.094,0.021,0.057,0.209,0.057,0.209
		c0.26,0.206,0.395-0.117,0.606-0.255c0.311,0.033,0.624,0.048,0.951,0.046c0.014,0.013,0.025,0.021,0.037,0.021
		c0.021-0.01,0.041-0.016,0.061-0.022c0.093-0.002,0.186-0.004,0.282-0.009l0.033,0.048c0.061-0.008,0.113-0.029,0.16-0.062
		c0.042-0.004,0.082-0.008,0.122-0.011c0.092,0,0.176,0.266,0.266,0.266c1.147-0.439,2.387-0.176,3.533-0.266
		c0.088-0.086,0.265-0.174,0.353-0.174c0.795,0,1.104-0.65,1.812-0.65c0.356-0.09,0.708-0.266,0.708-0.62
		c0.454-0.399,0.968-1.036,1.146-1.393c0.175-0.438,0.223-0.166,0.488-0.431v-0.268c0.177-0.176,0.441-0.438,0.529-0.616
		c0.443-0.708,0.884-1.237,1.327-1.855c0.089-0.179,0-0.354,0.176-0.442h0.265c0.356-0.266,0.356-0.618,0.618-0.885
		c0.265-0.439,0.441-0.882,0.884-1.146v-0.268c0.266-0.264,0.355-0.525,0.619-0.703c0.177-0.178,0.177-0.354,0.354-0.443
		c0.089,0,0.268,0,0.268,0.092c0,0.617,0.084,1.146-0.178,1.765c-0.089,0.177,0.088,0.443,0.088,0.706
		c0,0.178-0.264,0.268-0.354,0.441c-0.088,0.179,0.265,0.266,0.265,0.354c0,0.355-0.175,0.707-0.089,0.973
		c0.089,0.264,0.268,0.617,0.268,0.97c0,0.09,0.172,0.09,0.172,0.175c0,0.177-0.264,0.354-0.172,0.529
		c0.351,0.354,0.263,0.886,0.44,1.237c0.174,0.264,0.088,0.706,0.264,0.97c0.353,0.355,0.529,0.709,0.705,1.148
		c0.089,0.355,0.268,0.794,0.442,0.885c0.439,0.178,0.883,0.266,1.236,0.618h0.442c0.795,0,1.501,0.265,2.294,0.354
		c0,0,0.178,0,0.267,0.089c0.177,0.092,0.354-0.174,0.442-0.174c0.53,0.174,1.06,0.174,1.59,0.086h0.266
		c0.973,0,1.941-0.266,2.914,0c0.088,0.088,0.265-0.174,0.353-0.174c0.531,0,1.148,0,1.68-0.092c0.616-0.175,1.324-0.352,1.763-0.97
		h0.354c0.264-0.263,0.531-0.528,0.794-0.883c0.353-0.266,0.707-0.529,1.061-0.794v-0.267c0.088-0.179,0.266-0.179,0.439-0.267
		v-0.267c0.176-0.085,0.176-0.264,0.176-0.438c0.266-0.262,0.619-0.354,0.885-0.619v-0.264c0.619-0.62,1.502-1.06,1.855-1.856
		c0.175-0.44,0.706-0.618,0.883-0.97c0.093-0.177-0.176-0.177-0.176-0.268c0.09-0.086,0.268-0.175,0.354-0.175
		c0.354,0.266,0.265,0.619,0.354,1.06c0,0.091,0.091,0.267,0.176,0.355c0.088,0.527,0,1.06,0.355,1.325
		c0.352,0.354,0.705,1.058,1.236,0.971c0.794-0.176,1.678-0.091,2.472-0.44c0.708-0.264,1.502-0.354,2.296-0.53
		c0.176,0,0.355,0.176,0.441,0.09c0.532-0.09,0.97,0,1.5-0.18c0.265-0.089,0.531-0.089,0.795-0.264c0.089-0.087,0.356,0.09,0.442,0
		c0.441-0.267,0.971-0.354,1.149-0.794c0-0.178-0.088-0.357,0-0.533c0.266-0.439,0.352-0.97,0.706-1.413
		c0.531-0.705,1.061-1.413,1.503-2.208c0.263-0.439,0.175-0.884,0.263-1.413c0.09-0.177,0.266-0.177,0.353-0.354v-0.264
		c0.177-0.177,0.266-0.354,0.443-0.529c0.264-0.176,0.264-0.621,0.531-0.885v-0.354l0.264-0.265v-0.265
		c0.088-0.091,0.088-0.179,0.266-0.179c-0.09-0.527,0.089-0.881,0.354-1.323c0.175-0.176,0.265-0.44,0-0.619
		c-0.088-0.266,0.088-0.529,0.088-0.796c0.088-0.087,0.088-0.351,0.354-0.264c-0.176-0.528,0.441-0.619,0.53-1.06
		c0-0.263,0.265,0.178,0.353,0.089c0.266-0.352-0.176-0.882,0.442-0.97c-0.442-0.883-0.176-1.942,0.44-2.738
		c0.085-0.265-0.355-0.089-0.355-0.265c0.089-0.266-0.087-0.618,0.267-0.707c0.088,0,0.088,0.176,0.088,0.265
		c0.085-0.089,0.266-0.089,0.266-0.089c0.174-0.619,0.439-1.237,0.704-1.856c0.265-0.44,0.619-0.792,0.706-1.236
		c0.177-0.353-0.175-0.792-0.175-1.146c0-0.176,0.353-0.176,0.44-0.176c0.441-0.619,0.441-1.324,0.441-2.12
		c0-0.088,0.089-0.354,0.263-0.354c0.178,0,0.178,0.265,0.267,0.354c0.088,0.618,0.176,1.235,0.088,1.941
		c0,0.444,0.174,0.797,0.266,1.149c0,0.088-0.092,0.088-0.178,0.177c0.088,0.088,0.178,0.265,0.263,0.353
		c0.093,0.971,0.18,1.943,0.444,2.915c0.088,0.176-0.176,0.44-0.09,0.616c0.355,0.707,0.443,1.502,0.443,2.208v0.618
		c0.087,0.176,0.353,0.265,0.353,0.442v1.149c0,0.089,0.265,0.175,0.265,0.266c-0.177,0.44-0.088,0.882,0.175,1.324
		c0.179,0.266,0.088,0.617,0.179,0.881c0.177,0.269,0.263,0.532,0.351,0.707c0,0.266,0,0.532-0.088,0.796
		c0,0.178,0.176,0.442,0.265,0.62c0.087,0.174-0.089,0.439,0,0.619c0.176,0.439,0.355,0.883,0.355,1.323
		c0.088,0.176,0.263,0.354,0.438,0.531v0.353c0,0.09,0.178,0.09,0.178,0.176c0,0.09-0.178,0.176-0.088,0.354
		c0.088,0.354,0.44,0.795,0.44,1.15c0.09,0.706,0.618,1.411,0.793,2.206c0.09,0.088,0,0.265,0,0.354
		c0.442,0.883,0.619,1.856,0.708,2.826c0,0.175,0.265,0.175,0.353,0.353c0,0.089,0,0.178-0.088,0.263
		c0,0.444,0.441,0.619,0.706,0.885h0.263c0.179,0.091,0.267,0.354,0.355,0.354c0.621-0.087,1.237,0.092,1.856,0
		c0.619-0.176,1.15-0.354,1.675-0.264c0.088,0,0.268,0.177,0.354,0.177c1.06-0.177,2.032-0.177,3.093-0.354
		c0.438-0.091,0.794-0.619,0.97-0.973c0.266-0.619,0.621-1.146,0.972-1.677c0.353-0.62,0.795-1.237,1.324-1.767
		c0.176,1.411,0.09,2.913,0,4.327c0,0.708,0.355,1.504-0.09,2.12c0.179,0,0,0.266,0.179,0.266c-0.179,0.441,0,0.882-0.091,1.324
		c0.177,0,0,0.263,0.177,0.263c-0.089,0.09-0.265,0.267-0.177,0.441c0.264,0.354,0.177,0.799,0.177,1.236
		c0,0.178-0.265,0.266-0.352,0.441c0,0.179,0.263,0.53,0.263,0.618c0,0.529,0.265,1.149,0,1.679c-0.263,0.618-0.532,1.411,0,2.031
		c0.089,0.087-0.091,0.266-0.091,0.353c0,0.09,0.176,0.09,0.176,0.179c0,0.178-0.176,0.353-0.176,0.528
		c0.091,0.529,0.091,0.974,0.176,1.503c0.09,0.709,0,1.415,0.09,2.21c0,0.173,0.09,0.262,0.175,0.351
		c0.09,0.533-0.351,1.059-0.265,1.592c0.09,0.089,0,0.265,0.174,0.265c-0.438,0.619,0.091,1.237,0.622,1.503
		c0.177,0,0.352-0.18,0.531-0.092c0.175,0.092,0.266,0.268,0.439,0.356c0.707,0.177,1.412,0.353,2.12,0.527
		c0.439,0.091,0.795-0.091,1.147,0.267c0.175,0.086,0.266-0.091,0.441-0.178c0.53-0.091,0.972,0.262,1.412,0.353h0.438
		c0.533,0.177,0.973,0.265,1.5,0.177c0.093,0,0.093,0.177,0.181,0.177c0.707-0.09,1.411,0.175,1.855-0.528
		c0.175-0.356,0.175-0.707,0.264-1.15c0.087-0.089,0.179-0.264,0.267-0.353c0.086-0.439,0.265-0.972,0.439-1.324
		c0.354-1.413,0.883-2.65,1.147-4.152c0.09-0.44,0.441-0.972,0.441-1.501c0-0.093,0.264-0.177,0.264-0.265
		c0.09-0.354,0.09-0.794,0.267-1.148c0.09-0.266,0.177-0.618,0.265-0.882c0.265-0.619,0.353-1.237,0.62-1.856
		c0.089-0.439,0.262-0.883,0.438-1.324c0.18-0.353,0.356-0.791,0.441-1.237c0-0.261,0.44-0.526,0.44-0.882
		c-0.086-0.088-0.086-0.176-0.086-0.264c0.173-0.264,0.264-0.529,0.438-0.883c0.177-0.441,0.354-0.972,0.354-1.501
		c0-0.088,0.266-0.088,0.355-0.263c0.264-1.504,0.883-2.74,1.323-4.065c0.09-0.178,0.09-0.53,0.268-0.708
		c0.172-0.442,0.172-0.795,0.354-1.237c0.352-0.529,0.617-1.059,0.791-1.676c0.092-0.354,0.443-0.796,0.707-1.149
		c0.177-0.174,0.092-0.529,0.267-0.707c0.441-0.706,0.705-1.59,1.413-2.119c0.618,1.502,0.618,3.092,1.059,4.593
		c0.176,0.44,0,1.061,0.176,1.503c0.088,0.174,0.265,0.353,0.355,0.527c0.088,0.621,0.088,1.239,0.266,1.771
		c0.441,1.147,0,2.383,0.529,3.445c0.265,0.439,0.265,1.059,0.44,1.499c0.352,0.886,0.352,1.767,0.619,2.647
		c0.354,0.887,0.707,1.857,1.147,2.74c0.093,0.266,0,0.532,0.176,0.795c0.355,0.706,0.266,1.503,0.619,2.209
		c0,0.091-0.174,0.264-0.09,0.44c0.09,0.089,0.177,0.263,0.267,0.354c0.089,0.618,0.174,1.058,0.53,1.499
		c0.088,0.267-0.092,0.53,0,0.797c0.174,0.266,0.353,0.44,0.353,0.704c0.354,1.15,0.703,2.208,1.234,3.271
		c0,0.085,0.268-0.179,0.444-0.09c0.263,0.175,0.438,0.438,0.709,0.62c0.702,0.441,1.499,0.529,2.292,0.618
		c0.178,0,0.443,0,0.531-0.089C203.297,195.157,203.031,194.718,203.119,194.365z M186.922,145.133
		c0.042-0.03,0.079-0.051,0.112-0.076c-0.045,0.048-0.1,0.087-0.157,0.113C186.893,145.158,186.907,145.146,186.922,145.133z
		 M103.484,163.87c-0.028,0.057,0.058-0.127,0.041-0.068C103.581,163.78,103.484,163.946,103.484,163.87z"/>
</g>
</svg>
