<?xml version="1.0" encoding="utf-8"?>
<!-- Generator: Adobe Illustrator 16.2.1, SVG Export Plug-In . SVG Version: 6.00 Build 0)  -->
<!DOCTYPE svg PUBLIC "-//W3C//DTD SVG 1.1//EN" "http://www.w3.org/Graphics/SVG/1.1/DTD/svg11.dtd">
<svg version="1.1" id="Layer_1" xmlns="http://www.w3.org/2000/svg" xmlns:xlink="http://www.w3.org/1999/xlink" x="0px" y="0px"
	 width="320px" height="320px" viewBox="0 0 320 320" enable-background="new 0 0 320 320" xml:space="preserve">
<rect x="-154.639" y="87.348" fill="#ABABAB" width="55.488" height="55.488"/>
<rect x="-154.639" y="16.162" width="55.488" height="55.488"/>
<g>
	<path d="M2239.5,674.5c-6.6-31.609-13.203-63.218-19.795-94.829c-1.413-6.778-2.78-13.567-3.347-20.517
		c2.726,12.269,5.45,24.537,8.177,36.806c0.374-0.075,0.748-0.149,1.122-0.224c-1.805-9.321-3.608-18.644-5.413-27.965
		c0.518-0.099,1.035-0.195,1.553-0.295c2.592,13.32,5.182,26.642,7.771,39.961c-0.358,0.104-0.717,0.207-1.075,0.312
		c-0.722-2.527-1.443-5.055-2.165-7.582c-0.556,0.136-1.112,0.271-1.668,0.407c5.946,24.642,11.895,49.284,17.84,73.926
		C2241.5,674.5,2240.5,674.5,2239.5,674.5z"/>
	<path d="M1692.064,165.875c0.839,2.318,0.93,4.039,1.681,4.406c4.634,2.264,9.037,4.529,11.24,9.729
		c0.638,1.504,2.681,2.389,4.017,3.624c9.02,8.341,17.841,16.907,27.108,24.962c4.206,3.653,9.356,6.2,13.937,9.45
		c2.518,1.786,4.736,3.99,7.09,6.007c-0.369,0.471-0.738,0.941-1.106,1.412c-2.175-1.517-4.35-3.031-7.451-5.195
		c0.542,2.104,0.818,3.176,1.096,4.248c-0.239,0.271-0.479,0.543-0.719,0.813c-3.968-3.272-8.209-6.269-11.828-9.89
		c-4.097-4.1-7.407-8.979-11.474-13.116c-4.871-4.957-9.752-10.097-15.396-14.062c-9.074-6.375-18.232-2.02-25.987,2.795
		c-8.409,5.221-16.573,11.5-23.13,18.848c-6.429,7.205-11.188,16.072-15.802,24.683c-6.316,11.787-8.28,24.785-9.176,38.063
		c-0.423,6.242-2.857,12.326-3.637,18.574c-0.814,6.545-1.488,13.27-0.875,19.787c0.911,9.666,7.373,16.354,14.483,22.33
		c1.653,1.391,3.551,2.571,4.923,4.198c8.753,10.382,20.299,17.032,31.714,23.821c5.528,3.287,11.332,6.113,17.273,9.291
		c-1.735,0.841-3.946,1.644-5.865,2.896c-4.179,2.728-3.923,5.058,0.38,7.466c2.747,1.537,5.31,3.414,7.912,5.198
		c5.212,3.571,10.556,6.121,17.276,4.75c1.712-0.351,4.514,1.013,5.718,2.485c3.792,4.638,7.062,9.702,9.716,13.444
		c-3.798-1.804-9.373-4.312-14.828-7.063c-31.375-15.822-63.316-30.643-92.614-50.241c-12.579-8.414-24.493-17.821-36.792-26.662
		c-6.195-4.452-12.818-8.346-18.765-13.099c-2.635-2.105-4.797-5.462-5.917-8.688c-4.805-13.83-5.683-27.994-5.217-42.736
		c0.393-12.385,5.371-23.237,7.709-34.877c1.172-5.832,6.956-10.727,10.608-16.074c8.03-11.758,17.887-20.844,31.345-26.77
		c23.432-10.315,47.667-15.447,73.119-15.453C1686.959,165.232,1690.088,165.712,1692.064,165.875z"/>
	<path d="M1773.375,422.517c5.194,1.662,10.385,3.337,15.584,4.985c21.945,6.959,44.311,11.758,67.142,15.029
		c23.699,3.395,47.225,6.061,71.048,1.829c1.308-0.232,2.781,0.602,4.196,0.812c1.73,0.258,3.481,0.522,5.224,0.521
		c1.462-0.001,3.458-1.098,4.298-0.473c4.412,3.284,8.382,1.003,12.747-0.012c4.1-0.953,8.511-0.531,12.779-0.798
		c2.428-0.152,6.368,1.158,4.319-3.697c7.532,0,15.215,0.646,22.734-0.185c7.234-0.799,15.47,3.773,21.036-2.583
		c-0.576-2.741-0.983-4.673-1.391-6.604c2.149-0.444,4.311-1.309,6.446-1.257c6.41,0.156,12.855,1.314,19.203,0.866
		c6.568-0.464,7.054-2.362,4.812-8.53c-0.576-1.585,0.523-3.779,0.975-6.39c5.234,2.771,6.938,9.528,13.638,5.854
		c4.106-2.252,10.41-0.394,11.953-7.368c1.598,0.796,2.704,1.124,3.534,1.796c6.675,5.382,12.512,5.416,19.832,0.413
		c1.779-1.215,4.105-1.724,6.252-2.29c8.935-2.362,17.909-4.573,26.844-6.94c4.785-1.269,9.507-2.776,14.275-4.103
		c2.726-0.757,5.512-1.29,8.234-2.051c32.803-9.156,62.301-24.72,88.896-45.904c0.91-0.725,1.836-1.441,2.819-2.061
		c4.074-2.561,8.174-5.082,12.985-7.068c-0.69,0.871-1.241,1.918-2.091,2.588c-24.268,19.168-49.939,35.926-78.442,48.375
		c-25.731,11.237-53.071,16.431-79.991,23.293c-14.497,3.694-29.061,7.131-43.539,10.889c-5.624,1.459-11.051,3.661-16.653,5.218
		c-27.229,7.563-55.057,11.597-83.245,12.291c-19.459,0.479-38.959-0.27-58.431-0.866c-39.698-1.216-77.697-11.039-115.175-23.326
		c-1.081-0.354-2.111-0.863-3.166-1.301C1773.164,423.153,1773.27,422.835,1773.375,422.517z"/>
	<path d="M2012.6-21.347c-2.334,7.623-2.119,11.32,4.09,14.26c-5.963,0-11.33,0-17.81,0c8.737-3.068,6.263-9.856,6.426-15.259
		c0.167-5.572,1.932-12.059-5.144-15.949c5.451,0,10.437-0.014,15.422,0.003c7.204,0.023,11.486,2.35,12.519,6.771
		c1.089,4.659-0.697,7.272-8.824,11.864c4.762,4.36,9.234,8.457,13.691,12.539c-4.901,0.999-9.491,0.829-12.758-4.606
		C2018.294-14.916,2015.584-17.632,2012.6-21.347z M2011.188-30.061c-0.003,6.943,0.347,7.552,4.067,7.464
		c4.096-0.096,6.956-2.908,7-6.883c0.046-4.076-2.992-7.044-7.394-7.116C2009.204-36.688,2011.97-32.232,2011.188-30.061z"/>
	<path d="M1939.957-20.259c-0.541,0.024,0.12-0.03,0.781-0.032c3.819-0.008,7.642-0.004,10.49-0.004
		c-0.989,2.426-2.657,4.94-2.923,7.595c-0.284,2.844-1.159,4.435-3.896,4.69c-5.677,0.531-11.669,2.255-16.987,1.062
		c-10.026-2.247-14.657-12.852-10.874-22.03c3.837-9.308,15.248-13.296,24.225-8.601c1.472,0.77,3.303,0.853,5.312,1.337
		c0,2.535,0,5.813,0,10.581c-1.29-2.656-1.917-4.187-2.742-5.601c-2.446-4.191-5.987-6.788-10.998-6.33
		c-5.259,0.48-8.706,3.748-9.6,8.731c-0.713,3.982-0.814,8.322-0.024,12.27c1.251,6.242,6.073,9.393,12.671,8.226
		c2.627-0.465,5.816-2.669,6.947-4.968C1943.121-14.92,1940.811-18.028,1939.957-20.259z"/>
	<path d="M1875.365-27.925c0,2.664,0,5.797,0,9.16c-0.945-1.03-1.641-2.438-2.683-2.777c-1.813-0.591-4.133-1.181-5.679-0.498
		c-1.009,0.446-1.517,3.179-1.383,4.815c0.259,3.158-0.128,6.947,4.345,7.945c6.188,1.381,10.394-0.132,13.244-4.837
		c0.547,7.281,0.547,7.289-6.728,7.286c-6.825-0.002-13.651-0.021-20.479-0.047c-0.323-0.001-0.646-0.131-1.669-0.351
		c8.364-3.1,5.294-9.883,5.321-15.258c0.027-5.368,2.67-11.832-4.768-15.777c7.243,0,13.754,0.326,20.213-0.103
		c5.295-0.351,7.261,1.64,6.752,5.841c-2.66-1.281-5.304-3.274-8.216-3.816c-7.483-1.392-10.07,1.869-8.006,9.29
		c0.968,3.475,3.515,2.561,5.623,1.851C1872.811-25.723,1874.092-27.047,1875.365-27.925z"/>
	<path d="M2209.015-6.795c-2.37,0-4.015,0-5.657,0c-7.457,0-14.914,0-22.371,0c7.33-3.52,4.741-10.073,4.629-15.346
		c-0.112-5.354,2.841-11.917-5.17-16.142c8.709,0,16.416-0.331,24.051,0.266c1.613,0.126,2.964,3.642,4.292,5.405
		c-4.375-1.496-7.993-3.047-11.768-3.94c-4.075-0.966-6.042,1.187-5.387,5.24c0.356,2.204,1.325,6.104,2.086,6.121
		c2.548,0.056,5.126-1.293,7.632-2.085c0,2.067,0,5.309,0,8.74c-0.975-1.093-1.688-2.398-2.79-3.041
		c-4.343-2.535-7.173-0.89-6.919,4.097c0.161,3.183-0.377,6.981,4.034,8.128c5.942,1.543,10.794-0.197,14.06-5.475
		C2209.475-11.917,2209.271-9.674,2209.015-6.795z"/>
	<path d="M2043.72-7.178c1.876-2.496,4.372-5.021,5.92-8.032c4.069-7.923,7.728-16.059,12.07-25.21
		c1.346,2.229,2.158,3.356,2.749,4.589c3.521,7.349,6.836,14.802,10.564,22.043c1.27,2.466,3.534,4.419,5.274,6.521
		c-4.584,0-9.979,0-14.297,0c0.795-1.512,2.707-3.467,2.59-5.292c-0.221-3.444-2.396-5.807-6.435-5.13
		c-3.356,0.562-7.513-1.742-9.761,2.816c-1.696,3.444-2.3,6.381,2.695,7.694C2050.994-7.178,2046.895-7.178,2043.72-7.178z
		 M2065.312-19.685c-1.696-3.822-3.098-6.98-5.091-11.475c-2.096,4.486-3.562,7.624-5.36,11.475
		C2058.535-19.685,2061.119-19.685,2065.312-19.685z"/>
	<path d="M2121.908-31.887c-3.559-5.821-9.164-4.691-14.312-4.497c-0.837,0.031-2.259,2.315-2.242,3.543
		c0.035,2.623,0.836,5.236,1.323,7.854c2.186-0.476,4.419-0.803,6.522-1.516c0.638-0.216,0.913-1.5,1.815-3.126
		c0,4.41,0,7.839,0,12.088c-0.854-1.53-1.155-2.938-1.914-3.257c-1.917-0.808-4.09-1.603-6.057-1.399
		c-0.758,0.078-1.668,2.846-1.758,4.431c-0.242,4.246-0.638,8.778,4.854,10.709c-5.378,0-10.756,0-17.616,0
		c9.424-2.955,6.723-9.819,6.77-15.218c0.048-5.542,2.365-12.198-5.333-16.035c8.077,0,15.538,0.234,22.978-0.082
		C2121.9-38.604,2123.025-36.511,2121.908-31.887z"/>
	<path d="M2158.171-29.049c0,3.871,0,7.147,0,11.01c-0.756-1.164-1.085-2.334-1.753-2.578c-2.092-0.764-4.322-1.55-6.473-1.485
		c-0.59,0.019-1.477,2.979-1.553,4.62c-0.19,4.127-0.175,8.356,4.805,10.407c-5.065,0-10.131,0-16.057,0
		c7.507-3.398,5.479-9.68,5.414-15.025c-0.064-5.458,2.168-11.794-4.809-16.181c8.556,0,16.438-0.084,24.318,0.03
		c5.133,0.075,2.537,4.262,3.466,6.575c-3.239-4.093-9.252-6.316-14.487-4.777c-1.136,0.334-2.546,2.217-2.554,3.396
		c-0.021,2.651,0.351,5.515,1.503,7.821c0.292,0.584,4.16-0.435,6.287-1.055C2156.967-26.492,2157.338-27.775,2158.171-29.049z"/>
	<path d="M1764.299-31.305c-1.417-5.649,0.417-7.213,5.139-7.03c7.98,0.309,15.995,0.358,23.97-0.027
		c5.144-0.248,6.86,1.846,6.428,6.592c-1.544-1.361-2.826-3.221-4.569-3.904c-8.142-3.195-10.817-1.288-10.776,7.392
		c0.021,4.822-0.208,9.703,0.479,14.441c0.348,2.391,2.483,4.521,3.689,6.563c-3.965,0-9.339,0-16.214,0
		c5.638-1.473,6.544-4.619,6.434-8.576c-0.156-5.656-0.113-11.322-0.02-16.981c0.046-2.741-1.057-4.102-3.819-3.865
		C1770.99-36.355,1766.541-36.88,1764.299-31.305z"/>
	<path d="M1744.329-7.032c-4.73,0-10.002,0-15.272,0c4.946-1.176,5.62-4.947,5.669-9.032c0.064-5.484-0.073-10.973,0.059-16.455
		c0.08-3.327-1.474-4.548-4.566-4.188c-3.711,0.431-7.89-0.174-9.963,5.028c-1.279-5.086,0.139-6.78,4.794-6.631
		c8.303,0.266,16.628,0.28,24.929-0.027c4.62-0.171,6.037,1.606,5.011,6.16c-2.769-4.671-7.299-4.644-11.684-4.362
		c-1.062,0.067-2.827,1.959-2.869,3.065c-0.255,6.638-0.428,13.316,0.098,19.924C1740.709-11.305,1742.988-9.225,1744.329-7.032z"/>
	<path d="M1842.746-13.672c0.438,6.828,0.438,6.833-6.039,6.837c-8.23,0.006-16.462,0.002-24.941-0.47
		c5.32-0.891,6.043-4.829,5.629-8.634c-0.807-7.391,3.302-15.919-4-22.067c4.209,0,9.059,0,12.818,0
		c-0.909,2.526-2.409,5.405-2.913,8.45c-0.536,3.239-0.134,6.635-0.13,9.963c0.012,10.068,0.607,10.607,10.866,10.451
		C1837.663-9.196,1841.178-9.287,1842.746-13.672z"/>
	<path d="M1648.938-38.15c4.883,0,9.688,0,13.188,0c-0.916,2.573-2.528,5.357-2.803,8.268c-0.468,4.941-0.2,9.965-0.032,14.947
		c0.124,3.673,1.95,6.023,5.938,5.771c4.891-0.31,10.604,1.869,13.663-4.68c0.477,6.987,0.477,6.989-5.945,6.991
		c-8.284,0.002-16.568,0.001-25.167-0.341c6.044-1.441,6.194-6.116,5.671-10.444C1652.615-24.515,1656.875-32.675,1648.938-38.15z"
		/>
	<path d="M1785.869,260.672c6.542,4.137,13.084,8.271,19.419,12.275c-7.079,14.027-13.8,27.346-20.521,40.664
		c6.822-17.312,12.996-34.793-0.325-52.338C1784.917,261.073,1785.395,260.872,1785.869,260.672z"/>
	<path d="M1759.517,298.292c-7.882,19.423-16.685,28.636-30.005,30.94C1738.149,317.264,1742.803,302.045,1759.517,298.292z"/>
	<path d="M1706.756-7.109c-5.242,0-10.484,0-16.201,0c7.254-3.863,7.678-26.05,0.916-30.974c5.033,0,9.912,0,14.422,0
		c-7.244,5.919-3.832,14.205-4.229,21.482C1701.464-12.953,1701.252-8.184,1706.756-7.109z"/>
	<path d="M1983.09-6.812c-4.62,0-9.241,0.011-13.861-0.01c-0.769-0.003-1.535-0.138-2.593-0.564
		c5.213-0.787,6.071-4.642,5.689-8.417c-0.765-7.549,3.456-16.239-4.373-22.378c4.659,0,9.607,0,14.672,0
		C1975.688-32.986,1976.222-10.776,1983.09-6.812z"/>
	<path d="M1697.049,287.706c-7.955,9.782-15.752,19.37-24.492,30.117c2.121-7.902,3.271-14.985,5.963-21.425
		C1681.239,289.891,1690.339,286.242,1697.049,287.706z"/>
	<path d="M2052.634,364.766c-1.233-1.07-3.106-2.299-4.454-3.955c-1.784-2.192-4.67-4.875-4.443-7.078
		c0.951-9.312-2.818-16.289-8.781-22.799c-1.51-1.647-1.889-4.332-1.747-6.979C2044.074,335.832,2051.865,349.092,2052.634,364.766z
		"/>
	<path d="M1738.848,239.742c-6.472,7.549-12.43,14.498-19.142,22.326c-2.432-5.95,0.182-10.428,1.574-14.803
		C1722.571,243.213,1729.167,240.598,1738.848,239.742z"/>
	<path d="M1987.933,267.419c7.438,7.57,18.489,12.175,21.255,23.57c-0.431,0.358-0.86,0.716-1.291,1.073
		C2001.241,283.85,1994.587,275.634,1987.933,267.419z"/>
	<path d="M1795.975,309.729c4.018-9.314,6.953-19.146,13.688-27.104c-2.771,9.824-7.495,18.727-12.861,27.325
		C1796.76,310.014,1796.309,309.82,1795.975,309.729z"/>
	<path d="M1650.8,24.882c3.395,5.874-1.567,11.788-0.231,17.735C1646.504,36.812,1652.216,30.787,1650.8,24.882z"/>
	<path d="M1665.71,39.308c-0.24-4.738-8.059-6.539-4.584-12.986c2.292,4.235,4.443,8.209,6.595,12.183
		C1667.051,38.771,1666.381,39.04,1665.71,39.308z"/>
	<path d="M2001.938,235.699c0.84,3.43,1.887,6.83,2.378,10.311c0.129,0.914-1.466,2.072-2.269,3.119
		c-0.574-1.143-1.652-2.298-1.626-3.425c0.08-3.2,0.612-6.39,0.966-9.582C2001.57,235.98,2001.754,235.84,2001.938,235.699z"/>
	<path d="M2215.914,538.47c0.492,4.046,0.982,8.093,1.475,12.14c-0.284,0.054-0.568,0.105-0.854,0.159
		c-0.863-3.995-1.727-7.991-2.59-11.988C2214.602,538.677,2215.258,538.573,2215.914,538.47z"/>
	<path fill="#FFFFFF" d="M2011.188-30.061c0.781-2.172-1.983-6.628,3.675-6.535c4.4,0.072,7.438,3.04,7.394,7.116
		c-0.044,3.975-2.904,6.787-7,6.883C2011.534-22.509,2011.186-23.117,2011.188-30.061z"/>
	<path fill="#FFFFFF" d="M2065.312-19.685c-4.192,0-6.776,0-10.45,0c1.799-3.851,3.265-6.988,5.36-11.475
		C2062.215-26.665,2063.615-23.507,2065.312-19.685z"/>
</g>
<g>
	<path d="M16.315,164.725l-0.431,5.539H0v-0.933c0.229-0.019,0.561-0.049,0.996-0.093c0.435-0.043,0.738-0.102,0.909-0.172
		c0.287-0.112,0.494-0.278,0.624-0.498c0.128-0.219,0.193-0.498,0.193-0.84v-13.335c0-0.297-0.055-0.56-0.165-0.788
		c-0.11-0.227-0.327-0.411-0.652-0.551c-0.22-0.104-0.527-0.208-0.924-0.309c-0.396-0.101-0.724-0.16-0.981-0.178v-0.932h8.58v0.932
		c-0.267,0.009-0.614,0.053-1.038,0.132c-0.425,0.079-0.733,0.149-0.924,0.21c-0.325,0.105-0.547,0.284-0.666,0.538
		c-0.119,0.254-0.179,0.525-0.179,0.812v12.51c0,0.578,0.03,1.025,0.092,1.346c0.063,0.318,0.208,0.566,0.438,0.742
		c0.22,0.156,0.547,0.26,0.981,0.309c0.434,0.048,1.043,0.07,1.826,0.07c0.354,0,0.722-0.008,1.103-0.025
		c0.382-0.018,0.745-0.052,1.089-0.104c0.334-0.053,0.643-0.125,0.924-0.217c0.282-0.093,0.489-0.209,0.623-0.349
		c0.392-0.401,0.847-1.013,1.368-1.831c0.52-0.818,0.881-1.48,1.081-1.988h1.017V164.725z"/>
	<path d="M32.452,170.264H23.3v-0.933c0.257-0.019,0.631-0.044,1.117-0.079c0.487-0.035,0.831-0.088,1.031-0.158
		c0.314-0.113,0.544-0.269,0.687-0.466c0.145-0.196,0.216-0.47,0.216-0.819v-13.494c0-0.306-0.053-0.562-0.157-0.768
		c-0.105-0.206-0.354-0.379-0.745-0.519c-0.287-0.104-0.647-0.204-1.082-0.295c-0.434-0.092-0.789-0.147-1.066-0.165v-0.932h9.152
		v0.932c-0.295,0.009-0.648,0.042-1.06,0.1c-0.411,0.057-0.769,0.129-1.074,0.216c-0.363,0.105-0.606,0.275-0.73,0.512
		c-0.125,0.236-0.186,0.499-0.186,0.788v13.479c0,0.289,0.068,0.545,0.207,0.769c0.139,0.223,0.374,0.4,0.709,0.531
		c0.2,0.07,0.527,0.146,0.98,0.23c0.454,0.082,0.838,0.129,1.153,0.138V170.264z"/>
	<path d="M57.398,156.69H56.41c-0.086-0.314-0.242-0.689-0.467-1.122c-0.226-0.434-0.476-0.843-0.753-1.228
		c-0.288-0.402-0.601-0.755-0.941-1.057c-0.339-0.302-0.668-0.475-0.982-0.519c-0.297-0.035-0.67-0.061-1.12-0.079
		c-0.45-0.017-0.866-0.025-1.249-0.025h-0.833v14.896c0,0.289,0.067,0.555,0.201,0.795c0.134,0.24,0.367,0.426,0.701,0.558
		c0.173,0.062,0.533,0.146,1.082,0.25c0.549,0.104,0.976,0.162,1.282,0.171v0.932h-9.598v-0.932
		c0.268-0.018,0.677-0.053,1.226-0.105c0.549-0.052,0.928-0.117,1.139-0.195c0.314-0.114,0.547-0.278,0.694-0.493
		c0.147-0.214,0.223-0.501,0.223-0.858v-15.017h-0.832c-0.296,0-0.663,0.007-1.103,0.02c-0.438,0.013-0.859,0.041-1.26,0.085
		c-0.315,0.035-0.643,0.208-0.981,0.519c-0.34,0.311-0.651,0.663-0.938,1.057c-0.286,0.394-0.54,0.812-0.76,1.254
		c-0.22,0.441-0.372,0.807-0.458,1.096h-1.002v-5.054h17.718L57.398,156.69L57.398,156.69z"/>
	<path d="M81.413,156.69h-0.988c-0.086-0.314-0.241-0.689-0.467-1.122c-0.225-0.434-0.476-0.843-0.753-1.228
		c-0.288-0.402-0.601-0.755-0.941-1.057c-0.339-0.302-0.667-0.475-0.982-0.519c-0.297-0.035-0.67-0.061-1.12-0.079
		c-0.45-0.017-0.866-0.025-1.248-0.025H74.08v14.896c0,0.289,0.067,0.555,0.201,0.795c0.134,0.24,0.368,0.426,0.702,0.558
		c0.172,0.062,0.532,0.146,1.081,0.25s0.977,0.162,1.282,0.171v0.932h-9.598v-0.932c0.269-0.018,0.677-0.053,1.226-0.105
		c0.549-0.052,0.928-0.117,1.139-0.195c0.315-0.114,0.547-0.278,0.695-0.493c0.146-0.214,0.222-0.501,0.222-0.858v-15.017h-0.831
		c-0.297,0-0.663,0.007-1.103,0.02c-0.44,0.013-0.86,0.041-1.261,0.085c-0.315,0.035-0.643,0.208-0.981,0.519
		c-0.34,0.311-0.651,0.663-0.938,1.057c-0.287,0.394-0.541,0.812-0.76,1.254c-0.22,0.441-0.373,0.807-0.458,1.096h-1.003v-5.054
		h17.718V156.69z"/>
	<path d="M105.214,164.725l-0.431,5.539H88.898v-0.933c0.229-0.019,0.562-0.049,0.996-0.093c0.435-0.043,0.737-0.102,0.909-0.172
		c0.286-0.112,0.494-0.278,0.623-0.498c0.129-0.219,0.193-0.498,0.193-0.84v-13.335c0-0.297-0.055-0.56-0.164-0.788
		c-0.11-0.227-0.327-0.411-0.652-0.551c-0.22-0.104-0.527-0.208-0.924-0.309s-0.724-0.16-0.981-0.178v-0.932h8.58v0.932
		c-0.267,0.009-0.614,0.053-1.038,0.132c-0.425,0.079-0.733,0.149-0.924,0.21c-0.325,0.105-0.547,0.284-0.666,0.538
		c-0.119,0.254-0.179,0.525-0.179,0.812v12.51c0,0.578,0.03,1.025,0.092,1.346c0.062,0.318,0.208,0.566,0.438,0.742
		c0.22,0.156,0.547,0.26,0.981,0.309c0.434,0.048,1.043,0.07,1.826,0.07c0.354,0,0.722-0.008,1.103-0.025
		c0.382-0.018,0.745-0.052,1.089-0.104c0.334-0.053,0.643-0.125,0.924-0.217c0.282-0.093,0.489-0.209,0.623-0.349
		c0.392-0.401,0.847-1.013,1.368-1.831c0.52-0.818,0.881-1.48,1.081-1.988h1.018V164.725z"/>
	<path d="M129.559,164.775l-0.387,5.486h-16.873v-0.932c0.286-0.018,0.668-0.057,1.145-0.112c0.478-0.057,0.789-0.116,0.932-0.177
		c0.307-0.132,0.518-0.303,0.638-0.514c0.12-0.209,0.179-0.477,0.179-0.799v-13.39c0-0.288-0.053-0.544-0.158-0.768
		c-0.104-0.224-0.323-0.405-0.658-0.545c-0.257-0.113-0.604-0.214-1.038-0.302c-0.435-0.088-0.78-0.141-1.038-0.158v-0.932h15.727
		v4.489h-1.074c-0.19-0.665-0.604-1.371-1.238-2.12c-0.636-0.748-1.239-1.156-1.812-1.227c-0.296-0.035-0.649-0.062-1.06-0.079
		c-0.411-0.018-0.879-0.026-1.403-0.026h-3.194v7.403h2.292c0.734,0,1.272-0.063,1.61-0.19c0.339-0.127,0.638-0.34,0.896-0.637
		c0.209-0.254,0.389-0.593,0.536-1.017c0.148-0.425,0.246-0.825,0.294-1.201h1.074v7.298h-1.074
		c-0.039-0.42-0.141-0.864-0.308-1.333s-0.342-0.807-0.522-1.018c-0.297-0.342-0.634-0.563-1.011-0.67
		c-0.378-0.104-0.876-0.156-1.496-0.156h-2.292v5.582c0,0.56,0.043,1,0.129,1.324c0.085,0.322,0.252,0.566,0.501,0.732
		c0.248,0.166,0.587,0.273,1.018,0.32c0.429,0.049,1.04,0.072,1.832,0.072c0.315,0,0.731,0,1.246,0c0.517,0,0.951-0.018,1.304-0.053
		c0.363-0.035,0.738-0.099,1.125-0.189c0.387-0.092,0.661-0.217,0.824-0.375c0.438-0.42,0.899-1.057,1.381-1.909
		c0.482-0.854,0.791-1.48,0.925-1.884h1.028V164.775z"/>
	<path d="M170.111,162.833c-0.229,0.026-0.536,0.067-0.924,0.125c-0.387,0.058-0.699,0.138-0.938,0.243
		c-0.286,0.131-0.488,0.316-0.606,0.558c-0.121,0.24-0.181,0.522-0.181,0.847v1.443c0,1.051,0.007,1.76,0.021,2.127
		c0.015,0.367,0.031,0.669,0.051,0.905c-1.271,0.524-2.535,0.928-3.797,1.208c-1.26,0.279-2.495,0.42-3.708,0.42
		c-1.299,0-2.55-0.225-3.753-0.67c-1.203-0.446-2.254-1.082-3.151-1.904c-0.907-0.832-1.628-1.844-2.163-3.033
		c-0.534-1.19-0.802-2.522-0.802-3.994c0-1.417,0.255-2.733,0.766-3.945c0.512-1.213,1.234-2.267,2.171-3.159
		c0.907-0.876,1.988-1.557,3.243-2.043c1.257-0.486,2.601-0.729,4.033-0.729c1.146,0,2.144,0.127,2.993,0.38
		c0.85,0.254,1.6,0.561,2.248,0.92l0.588-0.894h1.146l0.129,6.511h-1.176c-0.201-0.718-0.449-1.424-0.746-2.12
		c-0.296-0.695-0.679-1.319-1.146-1.87c-0.469-0.552-1.039-0.991-1.713-1.319s-1.479-0.492-2.417-0.492
		c-1.022,0-1.937,0.19-2.739,0.571c-0.804,0.382-1.501,0.948-2.094,1.701c-0.583,0.727-1.032,1.634-1.349,2.72
		c-0.314,1.086-0.473,2.299-0.473,3.638c0,1.184,0.156,2.299,0.467,3.344c0.311,1.048,0.762,1.951,1.354,2.713
		c0.593,0.779,1.334,1.393,2.224,1.84c0.89,0.445,1.897,0.669,3.026,0.669c0.841,0,1.607-0.117,2.303-0.354
		c0.691-0.235,1.184-0.485,1.469-0.748c0.077-0.455,0.117-0.914,0.122-1.379c0.006-0.463,0.009-0.856,0.009-1.181v-1.024
		c0-0.367-0.056-0.692-0.166-0.978c-0.109-0.284-0.337-0.492-0.681-0.624c-0.315-0.131-0.742-0.229-1.281-0.295
		c-0.54-0.064-0.963-0.107-1.269-0.125v-0.958h8.908v0.957H170.111z"/>
	<path d="M186.464,170.264h-9.151v-0.933c0.256-0.019,0.629-0.044,1.115-0.079c0.488-0.035,0.832-0.088,1.031-0.158
		c0.314-0.113,0.545-0.269,0.688-0.466c0.145-0.196,0.215-0.47,0.215-0.819v-13.494c0-0.306-0.053-0.562-0.155-0.768
		c-0.104-0.206-0.354-0.379-0.746-0.519c-0.286-0.104-0.646-0.204-1.081-0.295c-0.434-0.092-0.79-0.147-1.066-0.165v-0.932h9.152
		v0.932c-0.296,0.009-0.648,0.042-1.06,0.1c-0.411,0.057-0.769,0.129-1.074,0.216c-0.363,0.105-0.606,0.275-0.731,0.512
		c-0.123,0.237-0.186,0.499-0.186,0.788v13.479c0,0.289,0.068,0.545,0.208,0.769c0.138,0.223,0.374,0.4,0.709,0.531
		c0.2,0.07,0.526,0.146,0.979,0.23c0.453,0.082,0.838,0.129,1.153,0.138V170.264z"/>
	<path d="M214.676,170.264h-5.474c-1.212-1.742-2.306-3.246-3.284-4.517c-0.979-1.269-2.039-2.577-3.184-3.925h-2.082v5.906
		c0,0.307,0.053,0.576,0.158,0.808c0.104,0.231,0.328,0.409,0.672,0.53c0.174,0.062,0.475,0.119,0.902,0.172
		c0.43,0.053,0.793,0.084,1.09,0.093v0.933h-8.596v-0.933c0.229-0.019,0.562-0.049,0.996-0.093c0.436-0.043,0.736-0.102,0.909-0.172
		c0.286-0.112,0.493-0.278,0.623-0.498c0.129-0.219,0.192-0.498,0.192-0.84v-13.468c0-0.306-0.048-0.577-0.143-0.812
		c-0.098-0.236-0.32-0.415-0.674-0.538c-0.238-0.079-0.549-0.15-0.932-0.217c-0.381-0.065-0.707-0.107-0.975-0.125v-0.932h9.383
		c0.859,0,1.666,0.081,2.42,0.243s1.438,0.422,2.049,0.781c0.592,0.35,1.065,0.807,1.418,1.371c0.354,0.564,0.53,1.245,0.53,2.042
		c0,0.717-0.12,1.352-0.358,1.902c-0.238,0.552-0.592,1.028-1.06,1.431c-0.431,0.377-0.944,0.702-1.547,0.978
		c-0.603,0.276-1.267,0.511-1.992,0.702c1.005,1.217,1.837,2.241,2.5,3.072c0.664,0.831,1.479,1.842,2.442,3.031
		c0.421,0.524,0.8,0.912,1.139,1.162c0.34,0.25,0.676,0.453,1.012,0.609c0.248,0.113,0.559,0.201,0.931,0.264
		c0.372,0.062,0.682,0.096,0.931,0.104v0.935H214.676z M207.143,156.383c0-1.127-0.354-2.021-1.061-2.681
		c-0.707-0.659-1.705-0.989-2.994-0.989h-2.436v7.98h1.875c1.32,0,2.418-0.386,3.297-1.159
		C206.702,158.761,207.143,157.71,207.143,156.383z"/>
	<path d="M240.281,170.264h-8.448v-0.933c0.744-0.044,1.362-0.132,1.854-0.265c0.492-0.131,0.737-0.291,0.737-0.484
		c0-0.079-0.011-0.175-0.03-0.288c-0.019-0.114-0.047-0.215-0.086-0.302l-1.683-4.176h-7.135c-0.269,0.613-0.485,1.146-0.652,1.603
		s-0.317,0.875-0.452,1.261c-0.125,0.377-0.209,0.682-0.259,0.918c-0.047,0.236-0.071,0.43-0.071,0.578
		c0,0.35,0.301,0.621,0.902,0.813c0.604,0.192,1.279,0.307,2.034,0.342v0.933h-7.654v-0.933c0.248-0.019,0.56-0.067,0.931-0.151
		c0.373-0.082,0.679-0.193,0.918-0.335c0.381-0.235,0.678-0.483,0.889-0.741c0.209-0.259,0.415-0.613,0.615-1.068
		c1.021-2.337,2.147-4.962,3.38-7.876c1.231-2.914,2.329-5.509,3.296-7.783h1.145l6.776,16.065c0.144,0.341,0.306,0.615,0.485,0.826
		c0.182,0.211,0.436,0.416,0.76,0.617c0.22,0.122,0.506,0.225,0.859,0.309c0.354,0.082,0.648,0.13,0.889,0.139V170.264
		L240.281,170.264z M232.104,162.648l-3.078-7.228l-3.035,7.228H232.104z"/>
	<path d="M262.648,156.297h-1.073c-0.201-0.691-0.619-1.431-1.255-2.218c-0.635-0.788-1.243-1.222-1.825-1.3
		c-0.297-0.035-0.646-0.062-1.054-0.079c-0.406-0.017-0.865-0.026-1.383-0.026h-3.408v7.481h2.341c0.708,0,1.259-0.067,1.651-0.203
		c0.393-0.135,0.728-0.344,1.004-0.623c0.192-0.193,0.367-0.493,0.524-0.899c0.157-0.407,0.261-0.843,0.31-1.307h1.073v7.325h-1.073
		c-0.028-0.386-0.127-0.823-0.295-1.313c-0.168-0.488-0.347-0.844-0.539-1.062c-0.285-0.324-0.646-0.546-1.084-0.663
		c-0.436-0.118-0.959-0.178-1.572-0.178h-2.34v6.408c0,0.289,0.062,0.547,0.187,0.772c0.124,0.228,0.345,0.411,0.659,0.551
		c0.145,0.062,0.453,0.136,0.931,0.224c0.478,0.086,0.841,0.136,1.091,0.145v0.932h-8.811v-0.932
		c0.286-0.018,0.668-0.047,1.145-0.086c0.479-0.039,0.789-0.09,0.933-0.15c0.286-0.113,0.493-0.283,0.624-0.506
		c0.128-0.224,0.191-0.492,0.191-0.808v-13.44c0-0.288-0.053-0.544-0.156-0.768c-0.104-0.224-0.324-0.405-0.659-0.545
		c-0.257-0.113-0.604-0.214-1.038-0.302s-0.78-0.141-1.038-0.158v-0.932h15.942v4.66H262.648z"/>
	<path d="M286.092,156.297h-1.074c-0.199-0.691-0.619-1.431-1.254-2.218c-0.635-0.788-1.244-1.222-1.824-1.3
		c-0.297-0.035-0.647-0.062-1.055-0.079c-0.406-0.017-0.865-0.026-1.382-0.026h-3.407v7.481h2.34c0.707,0,1.258-0.067,1.65-0.203
		c0.393-0.135,0.727-0.344,1.004-0.623c0.192-0.193,0.367-0.493,0.525-0.899c0.156-0.407,0.26-0.843,0.309-1.307h1.074v7.325h-1.074
		c-0.027-0.386-0.128-0.823-0.294-1.313c-0.168-0.488-0.348-0.844-0.54-1.062c-0.285-0.324-0.646-0.546-1.083-0.663
		c-0.437-0.118-0.96-0.178-1.571-0.178h-2.34v6.408c0,0.289,0.062,0.547,0.186,0.772c0.123,0.228,0.344,0.411,0.658,0.551
		c0.145,0.062,0.453,0.136,0.932,0.224c0.479,0.086,0.84,0.136,1.089,0.145v0.932h-8.81v-0.932c0.287-0.018,0.668-0.047,1.146-0.086
		s0.788-0.09,0.931-0.15c0.287-0.113,0.494-0.283,0.625-0.506c0.129-0.224,0.192-0.492,0.192-0.808v-13.44
		c0-0.288-0.053-0.544-0.158-0.768c-0.104-0.224-0.323-0.405-0.659-0.545c-0.256-0.113-0.604-0.214-1.037-0.302
		c-0.435-0.088-0.78-0.141-1.039-0.158v-0.932h15.942L286.092,156.297L286.092,156.297z"/>
	<path d="M310.852,164.775l-0.387,5.486h-16.873v-0.932c0.286-0.018,0.668-0.057,1.145-0.112c0.479-0.057,0.789-0.116,0.933-0.177
		c0.306-0.132,0.519-0.303,0.638-0.514c0.12-0.209,0.18-0.477,0.18-0.799v-13.39c0-0.288-0.053-0.544-0.158-0.768
		c-0.104-0.224-0.323-0.405-0.658-0.545c-0.257-0.113-0.604-0.214-1.038-0.302c-0.435-0.088-0.78-0.141-1.038-0.158v-0.932h15.728
		v4.489h-1.074c-0.19-0.665-0.604-1.371-1.238-2.12c-0.636-0.748-1.239-1.156-1.812-1.227c-0.297-0.035-0.649-0.062-1.061-0.079
		c-0.41-0.018-0.879-0.026-1.402-0.026h-3.194v7.403h2.292c0.734,0,1.271-0.063,1.609-0.19c0.34-0.127,0.639-0.34,0.896-0.637
		c0.21-0.254,0.389-0.593,0.537-1.017c0.148-0.425,0.246-0.825,0.293-1.201h1.075v7.298h-1.075c-0.038-0.42-0.141-0.864-0.307-1.333
		c-0.168-0.469-0.342-0.807-0.523-1.018c-0.296-0.342-0.633-0.563-1.01-0.67c-0.379-0.104-0.876-0.156-1.496-0.156h-2.292v5.582
		c0,0.56,0.043,1,0.128,1.324c0.086,0.322,0.253,0.566,0.502,0.732c0.248,0.166,0.587,0.273,1.018,0.32
		c0.43,0.049,1.041,0.072,1.832,0.072c0.315,0,0.731,0,1.246,0c0.518,0,0.951-0.018,1.305-0.053
		c0.363-0.035,0.736-0.099,1.125-0.189c0.387-0.092,0.66-0.217,0.823-0.375c0.438-0.42,0.899-1.057,1.382-1.909
		c0.481-0.854,0.791-1.48,0.925-1.884h1.026V164.775z"/>
	<path d="M320,152.4c0,0.86-0.332,1.593-0.997,2.2c-0.664,0.606-1.466,0.91-2.403,0.91c-0.937,0-1.737-0.304-2.401-0.91
		c-0.663-0.607-0.995-1.34-0.995-2.2c0-0.858,0.332-1.592,0.995-2.198c0.664-0.607,1.465-0.911,2.401-0.911
		c0.938,0,1.739,0.304,2.403,0.911C319.668,150.809,320,151.542,320,152.4z M319.62,152.4c0-0.762-0.293-1.42-0.881-1.972
		c-0.586-0.552-1.3-0.827-2.141-0.827c-0.84,0-1.554,0.275-2.139,0.827c-0.586,0.552-0.879,1.21-0.879,1.972
		c0,0.764,0.293,1.421,0.879,1.973c0.585,0.552,1.299,0.828,2.139,0.828c0.841,0,1.555-0.276,2.141-0.828
		C319.327,153.821,319.62,153.164,319.62,152.4z M318.82,154.011h-1.102c-0.244-0.313-0.455-0.577-0.634-0.787
		s-0.362-0.422-0.549-0.636h-0.406v0.923c0,0.051,0.011,0.099,0.032,0.143c0.021,0.043,0.064,0.075,0.129,0.097
		c0.028,0.009,0.087,0.021,0.177,0.033c0.09,0.014,0.157,0.021,0.203,0.023v0.204h-1.687v-0.204
		c0.046-0.005,0.107-0.012,0.188-0.021c0.08-0.01,0.139-0.021,0.177-0.035c0.059-0.021,0.099-0.052,0.122-0.092
		c0.024-0.04,0.036-0.089,0.036-0.147v-2.261c0-0.057-0.009-0.105-0.026-0.146c-0.019-0.041-0.062-0.072-0.132-0.094
		c-0.054-0.016-0.114-0.031-0.185-0.044c-0.068-0.013-0.128-0.021-0.18-0.026v-0.204h1.891c0.144,0,0.284,0.014,0.423,0.042
		c0.139,0.028,0.264,0.073,0.377,0.134c0.109,0.062,0.199,0.142,0.27,0.242c0.068,0.099,0.104,0.219,0.104,0.36
		c0,0.256-0.076,0.457-0.229,0.603c-0.153,0.146-0.377,0.256-0.675,0.331c0.207,0.229,0.383,0.425,0.524,0.586
		c0.142,0.161,0.271,0.306,0.382,0.435c0.071,0.083,0.143,0.144,0.211,0.184c0.069,0.04,0.138,0.069,0.2,0.088
		c0.052,0.017,0.113,0.031,0.185,0.044c0.072,0.014,0.13,0.021,0.174,0.023V154.011L318.82,154.011z M317.333,151.586
		c0-0.194-0.063-0.342-0.192-0.442c-0.127-0.101-0.315-0.151-0.563-0.151h-0.445v1.328h0.334c0.268,0,0.479-0.064,0.634-0.193
		C317.255,151.998,317.333,151.817,317.333,151.586z"/>
</g>
</svg>
