<?xml version="1.0" encoding="utf-8"?>
<!-- Generator: Adobe Illustrator 16.2.1, SVG Export Plug-In . SVG Version: 6.00 Build 0)  -->
<!DOCTYPE svg PUBLIC "-//W3C//DTD SVG 1.1//EN" "http://www.w3.org/Graphics/SVG/1.1/DTD/svg11.dtd">
<svg version="1.1" id="Layer_1" xmlns="http://www.w3.org/2000/svg" xmlns:xlink="http://www.w3.org/1999/xlink" x="0px" y="0px"
	 width="320px" height="320px" viewBox="0 0 320 320" enable-background="new 0 0 320 320" xml:space="preserve">
<rect x="-154.639" y="87.348" fill="#ABABAB" width="55.488" height="55.488"/>
<rect x="-154.639" y="16.162" width="55.488" height="55.488"/>
<g>
	<g>
		<path d="M70.67,137.435l0.187,0.428l0.125,5.1l-0.185,0.586c0,0-0.272,1.182-0.191,1.847c0.081,0.662,0.32,1.62,0.32,1.62
			l-0.032,1.463l-0.223,0.739v7.83l0.255,1.56l-0.193,0.347v0.575l-0.382,0.514v1.781l-0.34,1.119L70,166.098
			c0,0,0.199,0.825,0.412,0.855c0.481,0.075,0.891,2.271,0.891,2.271l0.431,0.688l0.162,0.764v1.017c0,0,0.165,0.747,0.165,1.131
			c0,0.379-0.292,1.542-0.292,1.542l-0.382,0.446c0,0-0.069,0.831-0.451,1.653c-0.382,0.824,0.371,3.373,0.371,3.373l0.184,0.448
			c0,0,0.153,0.316,0.326,0.693c0.382,0.838,0.763,0.892,0.763,0.892s2.003,0.13,2.292,0c0.292-0.13,1.019-0.445,1.019-0.445
			l0.764-0.446c0,0,0.311-0.319,0.634-0.509c0.329-0.189,0.06-7.664,0.06-7.664l0.126-2.801l0.262-0.606l0.062-2.037l0.321-0.954
			l0.702-0.513c0,0,0.317-0.122,0.699-0.122c0.381,0,0.515,0.23,0.796,0.291c0.282,0.06,1.677-0.151,1.677-0.151l0.645-0.076
			l0.891-0.449c0,0,1.338-0.418,3.183-1.271c1.845-0.859,3.037-1.802,3.037-1.802l0.954-0.814l0.129-0.187
			c0,0,0.465-0.446,0.781-0.637c0.318-0.193,0.954-0.702,0.954-0.702l0.638-1.021l1.786-1.972l0.702-0.703l0.382-1.08l-0.064-4.393
			c0,0,0.129-0.699,0.321-0.83c0.191-0.128,0-2.671-0.064-2.994c-0.064-0.317-0.305-1.187-0.446-1.652
			c-0.142-0.468-0.702-1.211-0.828-1.595c-0.128-0.379-0.223-0.881-0.511-1.333c-0.286-0.457-2.989-2.106-3.371-2.484
			c-0.386-0.381-1.37-0.269-1.912-0.321c-0.546-0.049-1.72-1.08-1.72-1.08s0.165-2.153,0.026-2.44
			c-0.138-0.293-1.236-0.492-1.236-0.492h-5.856l-1.547,0.226c0,0-3.064-0.111-3.575-0.111c-0.512,0-3.651-0.26-3.985-0.049
			c-0.331,0.209-0.509,0.574-0.509,0.574L70.67,137.435z M79.604,141.932l2.986-0.113l0.438,0.343l0.635,0.06l0.51,0.342l0.646,0.14
			c0,0,3.5,4.188,3.596,4.403c0.096,0.216,0.215,1.335,0.078,1.559c-0.131,0.221-0.261,0.188-0.4,0.426
			c-0.14,0.242-0.42,0.822-0.432,1.127c-0.006,0.304-0.16,1.124-0.159,1.479c0,0.354-0.536,1.368-0.536,1.368
			s-5.678,4.144-6.071,4.303c-0.393,0.16-2.094,0.094-2.094,0.094s-0.275-0.912-0.536-1.23c-0.263-0.312-0.434-1.111-0.434-1.111
			v-6.109l0.191-0.562l0.161-1.316c0,0,0.287-0.46,0.389-0.918c0.103-0.456,0.012-2.661,0.113-3.197
			C78.789,142.482,79.604,141.932,79.604,141.932z M106.545,176.368c0-0.228-0.202-0.682-0.317-0.855
			c-0.114-0.169-0.114-4.421-0.114-4.708c0-0.283-0.115-0.939-0.172-1.338c-0.057-0.398,0.09-1.496,0.229-1.887
			c0.286-0.8-0.115-3.709,0.116-4.17c0.225-0.451,0.626-0.853,1.197-0.969c0.571-0.112,2.057,0.116,2.397,0.346
			c0.343,0.223,3.539-0.059,5.14,0.172c1.598,0.223,2.371,2.453,2.484,2.796c0.114,0.346,0.427,2.915,0.258,3.712
			c-0.062,0.278-0.089,2.282-0.258,3.05c-0.069,0.32-0.426,3.853-0.37,4.937c0.058,1.081,0.799,1.714,1.085,1.998
			c0.287,0.287,0.729,0.234,1.013,0.296c0.286,0.049,0.108,0.059,0.568,0.289c0.454,0.227,0.56-0.015,0.788-0.072
			c0.228-0.059,0.206-0.226,0.61,0.03c0.339,0.213,1.103,0.075,1.671,0.137c0.57,0.058,1.546,0.066,1.832,0.089
			c0.292,0.022,1.55-0.078,2.124-0.024c0.569,0.058,1.865-1.872,0.614-1.984c-0.498-0.049-0.819-0.138-1.499-0.342
			c-1.113-0.334-0.984-0.697-1.21-0.984c-0.231-0.284-0.119-1.483-0.231-1.653c-0.113-0.171-0.113-3.252-0.113-3.937
			c0-0.179-0.086-0.744-0.199-0.917c-0.116-0.167-0.086-3.735-0.086-4.021c0-0.289,0.113-0.943,0.287-0.943
			c0.171,0,0.055-7.478,0.055-7.819c0-0.346,0.116-0.29-0.229-0.458c-0.343-0.171-0.227-1.428-0.227-1.827
			c0-0.398,0.058-0.744,0.342-0.974c0.284-0.225,0.171-6.849,0-8.223c-0.173-1.368-0.227-0.681-0.797-2.169
			c-0.573-1.482-2.342-3.138-2.855-3.597c-0.514-0.455-0.742-1.312-0.742-1.941c0-0.629-0.799-1.199-0.799-1.199l-3.486,0.058
			l-0.97,0.229l-5.567,0.086l-0.769,0.375l-0.686,0.171l-1.369,0.225l-1.202,0.059l-0.855,0.288c0,0-1.255,0.453-0.858,0.282
			c0.4-0.171-2.456,1.83-2.683,2.858c-0.23,1.025-0.23,7.421-0.23,7.421l-0.343,1.253l-0.287,7.026c0,0-0.542,1.252-0.313,0.771
			c0.229-0.488-0.202,8.99-0.202,8.99l-0.284,1.202l-0.343,5.192l0.114,5.758c0,0,0.287,0.971,0.742,0.971c0.459,0,3.37,0,3.882,0
			c0.515,0,3.77,0.231,4.055-0.226c0.286-0.457,0.398-0.516,0.286-1.085c-0.115-0.573-0.457-0.741-0.457-0.741l-0.457-0.682
			C106.859,177.684,106.545,176.601,106.545,176.368z M117.078,150.226c0,0.401-0.4,3.541-0.573,3.77
			c-0.171,0.228-2.511,1.14-2.91,1.484c-0.4,0.341-0.857,0.284-1.83,0.516c-0.97,0.226-2.396,1.197-3.024,0.686
			c-0.629-0.516-1.712-2.116-1.829-2.456c-0.116-0.346,0-2.4-0.116-3.084c-0.114-0.685-0.171-2.742-0.171-2.742s0,0,0.287-1.085
			c0.286-1.085,0.686-1.94,1.312-3.081c0.631-1.143,1.831-1.372,2.401-1.372c0.571,0,0.74,0.4,1.083,0.458
			c0.344,0.056,0.915,0,1.711,0.283c0.802,0.286,1.43,0.058,2.344,0.575c0.913,0.515,1.255,1.487,1.255,1.487
			C117.421,146.856,117.078,149.828,117.078,150.226z M154.248,152.825c0,0,0.602-0.6,0.602-1.028c0-0.429,0.344-1.969,0-2.657
			c-0.125-0.241-1.454-1.454-1.799-2.398c-0.343-0.942-1.029-4.797-1.371-6.251c-0.34-1.457-2.911-3.167-3.34-3.255
			c-0.426-0.085-5.379-0.458-6.935-0.085c-3.599,0.856-3.857-0.428-5.227,0.172c-0.916,0.396-2.655,2.053-3.854,4.194
			c-1.2,2.141-2.228,5.825-2.399,6.338c-0.171,0.515-0.285,4.938-0.285,4.938l-0.142,0.801l-0.258,4.537
			c0,0-0.425,8.649-0.054,10.707c0.184,1.027,1.684,1.964,2.369,3.942c0.685,1.964,0.772,4.271,1.37,4.872
			c0.6,0.601,1.148,1.713,3.255,1.283c2.091-0.426,2.619-0.56,2.723-0.932c0.118-0.406,7.982,0.421,9.179,0.328
			c1.199-0.08,1.627-0.765,2.57-2.566c0.941-1.79,1.027-3.077,1.027-3.077l0.343-1.54l0.259-1.459l0.171-2.224l0.599-2.227
			c0,0,0.514-2.145-0.084-2.312c-0.599-0.172-1.199-0.428-1.885-0.344c-0.685,0.085-1.199,0.428-1.199,0.428
			s-4.11,0.083-4.625,0.171c-0.512,0.088-1.282,0.431-1.626,0.943c-0.344,0.515-0.344,2.053-0.344,2.053s-0.427,0.774-0.171,1.457
			c0.255,0.684,0.342,1.198,0.342,1.198s-0.087,1.541-0.512,1.888c-0.426,0.341-1.37,0.766-2.228,0.766
			c-0.856,0-2.141-0.168-2.141-0.168s-0.597-0.426-0.943-1.111c-0.34-0.688-0.685-0.633-0.769-1.287
			c-0.085-0.655,0.197-1.456,0.371-2.141c0,0-0.028-2.597-0.199-2.998c-0.172-0.4-0.032-6.192,0.14-6.993
			c0.172-0.797,0.321-3.896,0.514-5.31c0.373-2.682,0.829-2.456,0.715-4.055c-0.046-0.634-0.314-2.394,0.026-2.738
			c0.344-0.343,1.661-1.479,4.908-1.37c1.717,0.056,1.717,1.255,1.717,1.712c0,0-0.06,4.624,0.111,5.021
			c0.171,0.401,0,1.202,2,1.656c1.998,0.458,3.312,0.575,4.683,0.8C153.223,152.74,152.767,153.082,154.248,152.825z
			 M168.915,143.032c0,0,2.566-0.63,2.854-0.343c0.287,0.282,0.683,0.684,0.911,0.684c0.232,0,1.657,0.458,1.657,0.742
			c0,0.285-0.058,3.141,0.169,3.309c0.229,0.172,0.802,0.804,1.317,0.744c0.513-0.057,0.513-0.057,0.513-0.057
			s2.742,0.171,3.025,0.057c0,0,0.741-0.34,0.913-0.455c0.175-0.115,0.515-6.281,0.347-6.625c-0.172-0.34-1.001-0.771-1.517-0.771
			c-0.608,0-0.855-1.372-2.482-1.856c-0.614-0.188-1.796-0.712-1.796-0.712s-0.771,0.082-2.425-0.144
			c-1.658-0.229-2.631-0.629-2.631-0.629s-1.022-0.744-1.601-0.744c-0.565,0-1.705,0.057-2.393,0.117
			c-0.684,0.057-0.858,0-1.94,0.57c-1.084,0.571-1.944,1.086-2.345,1.884c-0.397,0.798-0.54,1.97-1.054,2.539
			c-0.514,0.573-0.941,1.286-1.457,2.256c-0.383,0.722-0.515,1.77-0.627,2.344c-0.055,0.281-0.226,0.627-0.226,1.028
			c0,0.399,0,2.227,0.056,2.512c0.055,0.286,0.744,3.083,1.427,3.998c0.686,0.914,0.912,1.713,2.281,2.338
			c0.631,0.287,0.291,0.688,0.688,1.03c0.4,0.341,0.913,0.856,1.371,0.856s1.254,0.683,1.597,0.854
			c0.343,0.171,1.485,0.798,1.887,0.914c0.401,0.117,0.737,0.628,1.025,0.686c0.288,0.056,1.831,1.655,2.856,2.799
			c1.026,1.141,1.54,2.508,1.54,2.795c0,0.285,0.285,0.971,0.46,1.028c0.171,0.06,0.284,1.6,0.058,1.888
			c-0.232,0.284-0.544,0.318-0.918,0.626c-0.625,0.515-0.396,1.428-0.515,1.885c-0.11,0.459-0.054,0.111-0.054,0.111
			s-0.454,0.685-0.859,0.685c-0.397,0-1.766,0.288-1.997,0.344c-0.227,0.058-1.257,0.573-1.712,0
			c-0.457-0.571,0.06-1.652-0.286-2.338c-0.343-0.687-0.627-1.944-0.627-1.944s0-2.398-0.229-2.626
			c-0.229-0.228-1.198-0.571-2.111-0.571c-0.914,0-1.028,0.17-1.541,0.343c-0.516,0.168-1.199,0.055-1.199,0.055
			s-0.799,0.114-1.143,0.401c-0.343,0.285-1.312,0.741-1.312,1.202c0,0.453-0.455,1.367-0.17,3.079
			c0.283,1.717,0.341,2.63,0.74,3.653c0.399,1.03,0.573,1.602,0.573,1.602s0.453,0.852,1.77,1.135
			c1.314,0.289,4.219,1.256,5.077,1.372c0.859,0.113,4.396,0.854,5.142,1.082c0.74,0.227,2.452,0.544,3.427,0.258
			c0.967-0.286,4.281-6.884,5.137-12.699c0.344-2.339,0.971-3.595,0.573-4.337c0,0,0.453-1.142-0.744-1.77
			c-1.197-0.626-5.194-5.196-5.938-5.596c-0.738-0.397-0.857-0.397-1.769-1.198c-0.913-0.801-4.34-3.708-4.626-3.883
			c-0.287-0.172-1.544-0.057-1.885-0.057c-0.34,0-0.573-0.798-0.798-1.37c-0.229-0.571-0.058-0.914,0.114-1.655
			c0.169-0.74,0.681-2.282,1.197-2.856C167.196,143.032,168.283,143.09,168.915,143.032z M192.623,138.007
			c0,0-5.223-0.255-5.734-0.172c-0.514,0.084-0.26,9.85-0.428,10.192c-0.17,0.343-0.573,10.344-1.71,14.218
			c-0.861,2.911-0.258,4.023-0.087,4.367c0.169,0.343,0.257,1.37,0.257,1.37s0.257,2.741,0.6,3.428
			c0.344,0.683,1.196,3.08,3.168,4.193c1.97,1.109,3.254,1.883,4.969,2.139c1.714,0.256,4.534,0.514,5.566,0.256
			c1.029-0.256,3.597-1.203,4.28-1.285c0.682-0.086,4.201,0.082,4.879-0.086c0.688-0.171,1.2-0.512,1.374-1.449
			c0.169-0.94,1.024-4.282,1.28-4.965c0.26-0.688,0.26-1.712,0.26-1.712s0.172-8.225,0.428-8.566c0.257-0.343,0.344-1.457,0-1.801
			c-0.34-0.341-0.34-0.943-0.083-1.113c0.256-0.171,0.34-6.853,0.34-6.853s0.427-0.938,0.347-1.197
			c-0.088-0.259-0.429-1.197-0.429-1.197s-0.087-1.632,0.17-1.972c0.259-0.345,0.604-2.313,0.343-2.482
			c-0.26-0.17-0.513-0.945-0.431-1.287c0.088-0.341,0.259-0.771,0.259-0.771s0-0.597,0.768-0.855
			c0.775-0.259,1.716-0.086,1.716-0.086l0.516,0.431h1.881c0,0,0.347-0.516,0.431-0.858c0.083-0.342-0.087-0.771,0.515-0.683
			c0.602,0.084,0.685,0.341,0.685,0.341s0,0.596,0.084,0.943c0.088,0.343,0.771,1.713,0.771,1.713s0.081,7.194,0.255,7.451
			c0.17,0.258,0.517,1.968,0.345,2.227c-0.172,0.252-0.345,0.683-0.345,1.198c0,0.515-0.174,2.31-0.174,2.31l-0.338,3.513v1.8
			c0,0,0.338,0.94,0.085,1.027c-0.253,0.086-0.341,4.967-0.341,4.967l-0.259,0.768l-0.084,3.598c0,0-0.173,0.345-0.173,0.598
			c0,0.26,0.257,0.771,0.173,1.031c-0.088,0.26-0.173,6.583,0,6.844c0.169,0.257,0.935,1.198,1.195,1.198
			c0.26,0,6.769,0.261,7.54-0.081c0.771-0.346,0.855-1.97,0.678-2.4c-0.163-0.429-1.964-1.884-2.049-2.567
			c-0.087-0.682,0-5.819,0.172-6.249c0.166-0.427,0.424-7.19,0.512-7.878c0.085-0.684-0.256-9.334,0-9.849
			c0.26-0.513,1.113-3.767,1.2-4.11c0.088-0.342-0.09-2.396,0.341-2.911c0.427-0.513,0.943-0.856,1.452-0.773
			c0.518,0.088,2.061,1.117,2.573,1.03c0.516-0.088,2.312-0.088,2.483,0.258c0.17,0.34,1.03,1.455,1.544,1.455
			c0.512,0,1.196,0.768,1.196,1.197c0,0.428-0.085,6.938-0.256,7.452c-0.17,0.512-0.085,3.854-0.339,4.02
			c-0.265,0.176,0,5.142-0.265,5.572c-0.26,0.425-0.26,13.608-0.51,13.78c-0.259,0.167-0.603,0.512-0.943,0.855
			c-0.34,0.347-0.34,1.972,0.17,2.055c0.516,0.082,2.31,0.432,3.081,0.432s3.171,0.083,3.854,0.427
			c0.687,0.34,1.887,2.138,2.739,1.968c0.858-0.173,1.714-0.515,1.887-0.942c0.172-0.432,0.26-1.371,0-1.969
			c-0.257-0.601-0.516-1.543-1.887-1.714c-1.368-0.172-1.794-0.257-1.794-0.686c0-0.424-0.427-3.422-0.427-3.422
			s0.082-4.193,0.168-5.648c0.084-1.457,0.172-6.592,0.26-7.791c0.084-1.2,0.084-2.571,0.254-3.344
			c0.171-0.77,0.171-10.021,0.343-10.279c0.174-0.254,0.343-1.199,0.174-1.625c-0.174-0.429,0-2.143-0.346-2.487
			c-0.34-0.34-1.799-1.798-2.227-2.482c-0.426-0.687-1.368-2.824-2.827-3.17c-1.453-0.34-4.966-0.515-5.994-0.771
			c-1.026-0.255-5.138-0.425-6.339-0.339c-1.2,0.082-2.052,0.684-3.08,0.514c-1.026-0.173-1.629-0.688-2.143-1.027
			c-0.515-0.343-1.286-0.343-1.796-0.084c-0.518,0.257-6.427,0.341-6.853,0.341c-0.427,0-0.516,0.258-0.771,0.342
			c-0.256,0.084-2.311,0.084-3.429-0.169c-1.109-0.257-2.648-0.942-3.082-0.942c-0.429,0-1.624,0-2.049,0.256
			c-0.431,0.258-0.348,2.483-0.088,2.827c0.256,0.34,1.197,1.113,1.197,1.627c0,0.514-0.087,2.312,0.169,2.399
			c0.263,0.083,0.603,0.77,0.263,0.94c-0.348,0.172-0.348,1.282-0.348,1.541c0,0.258,0.426,1.03,0.348,1.286
			c-0.09,0.258-0.348,0.941-0.348,0.941s0.173,7.194-0.171,7.622c-0.344,0.427,0,7.021-0.257,7.538
			c-0.256,0.514-0.171,5.482-0.601,5.651c-0.427,0.17-7.11,0.255-7.619,0.085c-0.514-0.173-1.368-0.769-1.546-1.541
			c-0.166-0.771-0.595-1.541-0.421-2.311c0.168-0.772,0.516-13.619,0.168-14.474c-0.341-0.861-0.341-11.22-0.341-11.734
			C193.572,138.862,193.909,138.176,192.623,138.007z"/>
		<path d="M249.06,137.643c-0.617-0.615-1.383-0.931-2.264-0.931c-0.873,0-1.629,0.316-2.251,0.931
			c-0.62,0.621-0.934,1.375-0.934,2.25c0,0.882,0.311,1.643,0.931,2.262c0.617,0.626,1.374,0.943,2.257,0.943
			c0.881,0,1.644-0.316,2.27-0.943c0.617-0.62,0.931-1.382,0.931-2.262C249.997,139.019,249.684,138.261,249.06,137.643z
			 M248.668,141.767c-0.51,0.511-1.137,0.771-1.863,0.771c-0.73,0-1.357-0.26-1.866-0.771c-0.509-0.512-0.763-1.144-0.763-1.865
			c0-0.724,0.256-1.344,0.769-1.856c0.509-0.511,1.137-0.77,1.859-0.77c0.727,0,1.353,0.259,1.867,0.77
			c0.506,0.513,0.768,1.13,0.768,1.856C249.438,140.624,249.177,141.254,248.668,141.767z M248.222,141.38l-0.006-0.25v-0.252
			c0-0.184-0.063-0.379-0.196-0.57c-0.103-0.145-0.26-0.238-0.442-0.3c0.156-0.05,0.337-0.108,0.337-0.108
			c0.244-0.159,0.364-0.404,0.364-0.733c0-0.458-0.194-0.771-0.574-0.931c-0.207-0.083-0.528-0.126-0.967-0.126h-1.202h-0.063v3.561
			h0.724c0,0,0-1.233,0-1.35c0.093,0,0.418,0,0.418,0c0.314,0,0.527,0.037,0.648,0.104c0.195,0.113,0.296,0.356,0.296,0.729v0.268
			c0,0.011,0.011,0.119,0.011,0.119c0.01,0.049,0.019,0.066,0.019,0.066l0.01,0.047l0.054,0.016h0.637l-0.034-0.133L248.222,141.38z
			 M247.242,139.693c-0.12,0.044-0.307,0.064-0.561,0.064c0,0-0.388,0-0.484,0c0-0.105,0-0.978,0-1.086c0.097,0,0.458,0,0.458,0
			c0.325,0,0.562,0.037,0.708,0.115c0.136,0.073,0.196,0.217,0.196,0.439C247.559,139.457,247.452,139.611,247.242,139.693z"/>
	</g>
</g>
</svg>
