<?xml version="1.0" encoding="utf-8"?>
<!-- Generator: Adobe Illustrator 16.2.1, SVG Export Plug-In . SVG Version: 6.00 Build 0)  -->
<!DOCTYPE svg PUBLIC "-//W3C//DTD SVG 1.1//EN" "http://www.w3.org/Graphics/SVG/1.1/DTD/svg11.dtd">
<svg version="1.1" id="Layer_1" xmlns="http://www.w3.org/2000/svg" xmlns:xlink="http://www.w3.org/1999/xlink" x="0px" y="0px"
	 width="320px" height="320px" viewBox="0 0 320 320" enable-background="new 0 0 320 320" xml:space="preserve">
<rect x="-154.639" y="87.348" fill="#ABABAB" width="55.488" height="55.488"/>
<rect x="-154.639" y="16.162" width="55.488" height="55.488"/>
<g id="kBLlqE_1_">
	<g>
		<path d="M46.971,176.548c0,0.784,0,1.546,0,2.33c-2.118,0-4.187,0-6.256,0c-0.095-0.301-0.137-13.684-0.045-14.506
			c0.315-0.09,5.499-0.105,5.937-0.016c0.052,0.396,0.087,0.8,0.163,1.196c0.319,1.675,1.198,3.031,2.432,4.175
			c1.371,1.27,2.987,2.14,4.708,2.828c1.974,0.791,4.025,1.299,6.119,1.642c2.785,0.457,5.591,0.633,8.411,0.521
			c2.125-0.082,4.213-0.399,6.203-1.198c1.1-0.441,2.114-1.021,2.983-1.836c0.458-0.43,0.846-0.914,1.149-1.466
			c0.141-0.255,0.175-0.509,0.121-0.794c-0.143-0.735-0.545-1.302-1.112-1.766c-0.555-0.454-1.19-0.771-1.852-1.037
			c-1.34-0.534-2.739-0.851-4.151-1.108c-2.369-0.436-4.76-0.706-7.151-0.981c-3.413-0.392-6.83-0.756-10.211-1.38
			c-2.728-0.502-5.42-1.137-7.969-2.265c-1.549-0.688-2.989-1.545-4.176-2.779c-1.509-1.568-2.238-3.444-2.271-5.622
			c-0.04-2.732,1.018-4.986,2.896-6.901c1.284-1.309,2.794-2.303,4.419-3.132c2.404-1.228,4.954-2.042,7.585-2.61
			c2.715-0.587,5.462-0.908,8.244-0.874c2.167,0.028,4.311,0.282,6.435,0.698c3.066,0.601,6.054,1.469,8.941,2.669
			c0.587,0.244,1.141,0.567,1.723,0.825c0.203,0.09,0.447,0.138,0.667,0.125c0.446-0.027,0.571-0.191,0.573-0.637
			c0.002-0.447,0-0.894,0-1.329c0.357-0.095,4.977-0.114,5.485-0.028c0,4.25,0,8.503,0,12.782c-1.769,0-3.517,0-5.298,0
			c-0.024-0.192-0.044-0.375-0.071-0.558c-0.218-1.54-0.928-2.822-2.04-3.892c-1.059-1.021-2.313-1.74-3.653-2.317
			c-1.834-0.79-3.756-1.284-5.716-1.63c-2.779-0.49-5.581-0.696-8.402-0.604c-2.089,0.068-4.169,0.242-6.206,0.756
			c-0.83,0.21-1.641,0.48-2.404,0.875c-0.558,0.288-1.075,0.634-1.496,1.106c-0.479,0.537-0.756,1.157-0.793,1.885
			c-0.032,0.613,0.176,1.129,0.655,1.489c0.389,0.293,0.821,0.548,1.267,0.744c1.042,0.456,2.157,0.67,3.271,0.86
			c2.203,0.376,4.426,0.58,6.649,0.796c3.564,0.348,7.131,0.678,10.66,1.306c2.702,0.481,5.365,1.11,7.908,2.17
			c1.614,0.673,3.135,1.509,4.463,2.663c2.069,1.797,3.228,4.053,3.465,6.79c0.305,3.53-0.903,6.428-3.58,8.726
			c-1.65,1.416-3.558,2.384-5.579,3.145c-2.371,0.892-4.824,1.459-7.324,1.835c-2.068,0.312-4.144,0.507-6.237,0.518
			c-1.31,0.006-2.606-0.16-3.892-0.375c-4.208-0.7-8.351-1.688-12.432-2.93c-0.539-0.163-1.063-0.349-1.561-0.639
			C48.143,176.519,47.572,176.531,46.971,176.548z"/>
		<path d="M158.458,147.24c0-1.646,0-3.236,0-4.876c0.191-0.006,0.373-0.019,0.555-0.02c5.817,0,11.633,0,17.451,0
			c0.262,0,0.524,0.018,0.784-0.004c0.312-0.027,0.543,0.076,0.775,0.288c1.597,1.457,3.207,2.9,4.812,4.346
			c6.572,5.923,13.146,11.848,19.72,17.771c0.126,0.115,0.257,0.226,0.469,0.41c0.007-0.26,0.016-0.422,0.016-0.588
			c0-4.7,0-9.4,0-14.1c0-0.362-0.007-0.726,0.002-1.088c0.012-0.594-0.259-1.027-0.749-1.336c-0.452-0.288-0.949-0.412-1.486-0.41
			c-1.624,0.007-3.249,0.002-4.874,0.002c-0.156,0-0.312,0-0.493,0c0-1.772,0-3.492,0-5.215c0.007-0.008,0.016-0.019,0.026-0.029
			c0.01-0.009,0.021-0.024,0.033-0.024c7.268-0.008,14.534-0.016,21.8-0.021c0.085,0,0.171,0.012,0.281,0.02c0,1.75,0,3.481,0,5.27
			c-0.167,0-0.322,0-0.478,0c-1.565-0.001-3.133-0.003-4.699-0.007c-1.319-0.003-1.903,0.559-1.957,1.891
			c-0.008,0.188-0.008,0.376-0.008,0.565c0,9.545,0,19.091,0,28.636c0,0.186,0,0.372,0,0.587c-0.165,0.014-0.289,0.032-0.415,0.032
			c-2.466,0.002-4.932-0.001-7.397,0.006c-0.249,0.001-0.435-0.071-0.621-0.237c-9.427-8.392-18.857-16.776-28.289-25.163
			c-0.113-0.101-0.233-0.195-0.421-0.352c0,0.232,0,0.372,0,0.511c-0.001,6.311-0.001,12.621,0.002,18.932
			c0,0.244,0.024,0.49,0.062,0.734c0.041,0.274,0.218,0.446,0.49,0.479c0.315,0.038,0.636,0.062,0.952,0.062
			c1.771,0.006,3.541,0.003,5.311,0.003c0.155,0,0.312,0,0.493,0c0,1.692,0,3.336,0,5.004c-7.346,0-14.665,0-22.015,0
			c0-1.66,0-3.303,0-5.004c0.167,0,0.322,0,0.476,0c1.61,0,3.221,0.001,4.831-0.001c0.188,0,0.379,0.003,0.564-0.026
			c0.571-0.088,0.894-0.456,0.923-1.034c0.007-0.116,0.003-0.233,0.003-0.349c0-8.036,0-16.074,0-24.11
			c0-0.117,0.003-0.232-0.002-0.348c-0.018-0.679-0.266-0.99-0.924-1.11c-0.312-0.057-0.633-0.088-0.951-0.089
			c-1.508-0.01-3.016-0.004-4.524-0.004C158.828,147.24,158.67,147.24,158.458,147.24z"/>
		<path d="M124.949,181.029c-1.173-0.038-2.353-0.017-3.52-0.123c-6.121-0.56-11.807-2.37-16.833-6.001
			c-2.631-1.901-4.821-4.217-6.388-7.082c-1.399-2.561-2.111-5.297-2.027-8.221c0.083-2.922,0.95-5.615,2.467-8.103
			c1.525-2.5,3.536-4.551,5.887-6.277c3.209-2.355,6.782-3.938,10.616-4.959c3.814-1.015,7.7-1.39,11.636-1.207
			c4.848,0.225,9.5,1.283,13.893,3.379c3.066,1.463,5.824,3.361,8.139,5.868c2.049,2.219,3.587,4.74,4.357,7.68
			c1.15,4.396,0.462,8.542-1.834,12.433c-1.699,2.874-4.04,5.142-6.784,7.011c-3.375,2.297-7.096,3.791-11.062,4.701
			c-1.897,0.436-3.819,0.722-5.761,0.843c-0.924,0.059-1.856,0.011-2.784,0.011C124.95,180.997,124.949,181.015,124.949,181.029z
			 M124.422,174.34c2.801-0.001,5.037-0.371,7.191-1.179c3.089-1.158,5.717-2.963,7.633-5.679c2.577-3.655,3.19-7.629,1.633-11.852
			c-1.091-2.961-3.087-5.243-5.731-6.914c-5.126-3.239-10.622-3.794-16.357-1.962c-3.17,1.012-5.859,2.807-7.877,5.483
			c-2.72,3.608-3.481,7.595-2.017,11.912c0.984,2.899,2.872,5.146,5.354,6.896C117.447,173.299,121.038,174.307,124.422,174.34z"/>
		<path d="M264.031,174.435c0,1.567,0,3.126,0,4.711c-8.583,0-17.149,0-25.742,0c0-1.573,0-3.131,0-4.746c0.173,0,0.328,0,0.483,0
			c1.652,0,3.308,0.001,4.96,0c0.173,0,0.35,0.003,0.521-0.017c0.539-0.057,0.827-0.369,0.861-0.915
			c0.006-0.086,0.003-0.173,0.003-0.261c0-2.394-0.005-4.787,0.005-7.181c0.001-0.278-0.075-0.486-0.266-0.696
			c-5.295-5.792-10.583-11.589-15.867-17.391c-0.204-0.223-0.409-0.313-0.712-0.312c-1.928,0.013-3.858,0.006-5.788,0.006
			c-0.156,0-0.313,0-0.502,0c0-1.771,0-3.501,0-5.262c8.748,0,17.487,0,26.229,0c0.088,0.302,0.115,4.598,0.025,5.24
			c-0.142,0.011-0.294,0.031-0.446,0.031c-0.898,0-1.799-0.005-2.698-0.006c-0.101,0-0.204-0.001-0.304,0.014
			c-0.357,0.055-0.555,0.281-0.484,0.637c0.056,0.275,0.165,0.561,0.325,0.791c0.271,0.392,0.586,0.757,0.908,1.109
			c2.574,2.815,5.153,5.626,7.732,8.438c0.066,0.073,0.146,0.133,0.24,0.216c0.122-0.129,0.23-0.244,0.336-0.361
			c2.915-3.191,5.83-6.383,8.745-9.575c0.068-0.075,0.138-0.151,0.19-0.235c0.193-0.302,0.146-0.581-0.13-0.809
			c-0.225-0.186-0.485-0.227-0.772-0.223c-0.914,0.013-1.828,0.006-2.741,0.004c-0.127,0-0.255-0.022-0.408-0.037
			c0-1.752,0-3.483,0-5.239c7.093,0,14.163,0,21.266,0c0,1.741,0,3.473,0,5.266c-0.157,0-0.312,0-0.468,0
			c-1.726,0-3.451,0.005-5.178-0.005c-0.283-0.001-0.482,0.079-0.679,0.289c-5.581,5.96-11.17,11.914-16.761,17.865
			c-0.184,0.196-0.26,0.39-0.259,0.655c0.01,2.292,0.005,4.584,0.007,6.876c0,0.101,0,0.203,0.009,0.305
			c0.04,0.453,0.276,0.716,0.73,0.778c0.199,0.028,0.404,0.004,0.606,0.004c1.944,0,3.889,0,5.832,0
			C263.895,174.402,263.95,174.421,264.031,174.435z"/>
	</g>
</g>
</svg>
